<svg width="1401" height="219" viewBox="0 0 1401 219" fill="none" xmlns="http://www.w3.org/2000/svg">
<path d="M0.225342 215V4.54224H33.4263V215H0.225342ZM124 143.319L165.258 4.54224H200.403L137.891 215H110.108L47.5957 4.54224H82.7415L124 143.319ZM250.413 126.094H289.726L270.139 58.1638L250.413 126.094ZM190.679 215L250.691 4.54224H287.087L347.099 215H315.009L297.645 154.016H242.495L225.13 215H190.679ZM474.762 133.734V4.54224H507.824V215H481.43L396.414 53.5796V215H363.352V4.54224H406.138L474.762 133.734ZM527.412 161.101L554.083 152.349C554.176 152.349 554.361 153.043 554.639 154.433C554.917 155.822 555.38 157.674 556.028 159.989C556.769 162.212 557.742 164.712 558.946 167.491C560.242 170.176 562.094 172.908 564.502 175.687C566.91 178.372 569.735 180.827 572.976 183.049C580.2 188.143 589.183 190.69 599.926 190.69C610.669 190.69 618.541 188.05 623.542 182.771C628.635 177.493 631.182 171.241 631.182 164.018C631.182 156.702 630.441 150.821 628.959 146.375C627.477 141.838 624.884 137.902 621.18 134.568C614.975 129.011 604.232 124.01 588.951 119.565C562.002 111.693 544.684 99.5145 536.997 83.0298C533.015 74.417 531.023 64.2761 531.023 52.6072C531.023 42.7904 534.496 33.2052 541.442 23.8516C553.574 8.38558 570.8 0.652588 593.119 0.652588C610.808 0.652588 625.301 5.9777 636.6 16.6279C644.657 24.1294 650.676 33.5757 654.659 44.9668L657.298 52.3293C658.132 54.552 658.687 55.9875 658.965 56.6357L631.876 66.2209C625.764 46.7727 616.225 34.7796 603.26 30.2417C600.018 29.1304 596.638 28.5747 593.119 28.5747C573.856 28.5747 564.224 38.484 564.224 58.3027C564.224 67.3786 566.91 74.3244 572.281 79.1401C576.727 83.3076 582.561 86.5953 589.785 89.0032L596.453 91.2258C600.25 92.5224 602.334 93.217 602.704 93.3096L608.816 95.3933C624.653 100.95 635.349 105.858 640.906 110.118C649.056 116.416 654.381 122.204 656.881 127.483C661.882 138.318 664.383 149.756 664.383 161.795C664.383 171.241 661.697 180.827 656.326 190.551C649.102 203.609 637.665 212.175 622.013 216.25C615.994 217.825 609.418 218.612 602.287 218.612C595.156 218.612 588.442 217.964 582.145 216.667C575.94 215.37 570.568 213.611 566.03 211.388C561.492 209.166 557.325 206.619 553.528 203.748C549.731 200.877 546.536 197.867 543.943 194.718C541.35 191.477 539.081 188.282 537.136 185.133C535.191 181.892 533.617 178.836 532.413 175.965C531.301 173.094 530.375 170.547 529.634 168.324C528.893 166.102 528.338 164.342 527.967 163.045C527.689 161.749 527.504 161.101 527.412 161.101ZM717.449 72.4722V215H684.942V4.54224H729.951L770.376 149.987H771.765L812.189 4.54224H857.198V215H824.553V72.4722H823.303L783.851 215H758.29L718.838 72.4722H717.449ZM887.899 215V4.54224H921.1V215H887.899ZM935.269 32.4644V4.54224H1082.1V32.4644H1025.29V215H992.086V32.4644H935.269ZM1099.61 215V4.54224H1132.81V90.5312H1209.49V4.54224H1242.69V215H1209.49V118.453H1132.81V215H1099.61ZM1263.11 161.101L1289.78 152.349C1289.88 152.349 1290.06 153.043 1290.34 154.433C1290.62 155.822 1291.08 157.674 1291.73 159.989C1292.47 162.212 1293.44 164.712 1294.64 167.491C1295.94 170.176 1297.79 172.908 1300.2 175.687C1302.61 178.372 1305.43 180.827 1308.68 183.049C1315.9 188.143 1324.88 190.69 1335.62 190.69C1346.37 190.69 1354.24 188.05 1359.24 182.771C1364.33 177.493 1366.88 171.241 1366.88 164.018C1366.88 156.702 1366.14 150.821 1364.66 146.375C1363.18 141.838 1360.58 137.902 1356.88 134.568C1350.67 129.011 1339.93 124.01 1324.65 119.565C1297.7 111.693 1280.38 99.5145 1272.7 83.0298C1268.71 74.417 1266.72 64.2761 1266.72 52.6072C1266.72 42.7904 1270.2 33.2052 1277.14 23.8516C1289.27 8.38558 1306.5 0.652588 1328.82 0.652588C1346.51 0.652588 1361 5.9777 1372.3 16.6279C1380.36 24.1294 1386.38 33.5757 1390.36 44.9668L1393 52.3293C1393.83 54.552 1394.39 55.9875 1394.66 56.6357L1367.58 66.2209C1361.46 46.7727 1351.92 34.7796 1338.96 30.2417C1335.72 29.1304 1332.34 28.5747 1328.82 28.5747C1309.56 28.5747 1299.92 38.484 1299.92 58.3027C1299.92 67.3786 1302.61 74.3244 1307.98 79.1401C1312.43 83.3076 1318.26 86.5953 1325.48 89.0032L1332.15 91.2258C1335.95 92.5224 1338.03 93.217 1338.4 93.3096L1344.52 95.3933C1360.35 100.95 1371.05 105.858 1376.61 110.118C1384.75 116.416 1390.08 122.204 1392.58 127.483C1397.58 138.318 1400.08 149.756 1400.08 161.795C1400.08 171.241 1397.4 180.827 1392.02 190.551C1384.8 203.609 1373.36 212.175 1357.71 216.25C1351.69 217.825 1345.12 218.612 1337.99 218.612C1330.86 218.612 1324.14 217.964 1317.84 216.667C1311.64 215.37 1306.27 213.611 1301.73 211.388C1297.19 209.166 1293.02 206.619 1289.23 203.748C1285.43 200.877 1282.23 197.867 1279.64 194.718C1277.05 191.477 1274.78 188.282 1272.83 185.133C1270.89 181.892 1269.32 178.836 1268.11 175.965C1267 173.094 1266.07 170.547 1265.33 168.324C1264.59 166.102 1264.04 164.342 1263.67 163.045C1263.39 161.749 1263.2 161.101 1263.11 161.101Z" fill="#09090B"/>
</svg>
