<svg width="18" height="18" viewBox="0 0 18 18" fill="none" xmlns="http://www.w3.org/2000/svg">
<rect x="0.5" y="0.5" width="17" height="17" rx="8.5" stroke="#ECECEC"/>
<path d="M10.0327 5.14489C9.99427 5.1019 9.94668 5.06684 9.89295 5.04197C9.83922 5.01709 9.78053 5.00294 9.72062 5.00041C9.6607 4.99788 9.60088 5.00704 9.54497 5.02729C9.48905 5.04754 9.43827 5.07844 9.39586 5.11803C9.35345 5.15762 9.32035 5.20502 9.29865 5.25721C9.27696 5.30941 9.26715 5.36525 9.26986 5.42117C9.27256 5.4771 9.28773 5.53189 9.31438 5.58204C9.34103 5.6322 9.37858 5.67662 9.42464 5.71247L12.5269 8.61169H4.40999C4.2993 8.61717 4.19507 8.66208 4.1188 8.73716C4.04252 8.81224 4 8.91177 4 9.01524C4 9.11872 4.04252 9.21825 4.1188 9.29333C4.19507 9.3684 4.2993 9.41331 4.40999 9.41879H12.5269L9.41977 12.3146C9.34157 12.3911 9.29793 12.4927 9.29793 12.5984C9.29793 12.7041 9.34157 12.8057 9.41977 12.8822C9.45965 12.9195 9.50704 12.9492 9.55921 12.9694C9.61138 12.9896 9.66731 13 9.7238 13C9.78028 13 9.83621 12.9896 9.88838 12.9694C9.94055 12.9492 9.98794 12.9195 10.0278 12.8822L13.8707 9.29506C13.9116 9.25831 13.9441 9.21424 13.9663 9.16547C13.9885 9.11671 14 9.06426 14 9.01127C14 8.95828 13.9885 8.90583 13.9663 8.85707C13.9441 8.8083 13.9116 8.76423 13.8707 8.72748L10.0327 5.14489Z" fill="#ECECEC"/>
</svg>
