<svg width="22" height="22" viewBox="0 0 22 22" fill="none" xmlns="http://www.w3.org/2000/svg">
<path d="M11 14C11.8333 14 12.5417 13.7083 13.125 13.125C13.7083 12.5417 14 11.8333 14 11C14 10.1667 13.7083 9.45833 13.125 8.875C12.5417 8.29167 11.8333 8 11 8C10.1667 8 9.45833 8.29167 8.875 8.875C8.29167 9.45833 8 10.1667 8 11C8 11.8333 8.29167 12.5417 8.875 13.125C9.45833 13.7083 10.1667 14 11 14ZM11 16C9.61667 16 8.4375 15.5125 7.4625 14.5375C6.4875 13.5625 6 12.3833 6 11C6 9.61667 6.4875 8.4375 7.4625 7.4625C8.4375 6.4875 9.61667 6 11 6C12.3833 6 13.5625 6.4875 14.5375 7.4625C15.5125 8.4375 16 9.61667 16 11C16 12.3833 15.5125 13.5625 14.5375 14.5375C13.5625 15.5125 12.3833 16 11 16ZM4 12H0V10H4V12ZM22 12H18V10H22V12ZM10 4V0H12V4H10ZM10 22V18H12V22H10ZM5.4 6.75L2.875 4.325L4.3 2.85L6.7 5.35L5.4 6.75ZM17.7 19.15L15.275 16.625L16.6 15.25L19.125 17.675L17.7 19.15ZM15.25 5.4L17.675 2.875L19.15 4.3L16.65 6.7L15.25 5.4ZM2.85 17.7L5.375 15.275L6.75 16.6L4.325 19.125L2.85 17.7Z" fill="#FEFEFF"/>
</svg>
