<svg xmlns="http://www.w3.org/2000/svg" viewBox="0 0 1111.93 566.06"><defs><style>.cls-1{fill:#fff;stroke:#000;stroke-miterlimit:10;}</style></defs><g id="Livello_2" data-name="Livello 2"><g id="Livello_1-2" data-name="Livello 1"><path class="cls-1" d="M1065.4,560.55l39.61,4.38,6.43-28-6.43,28c-9.72-12.33-24-29.87-42.06-50.16-61.83-69.36-113.37-127.19-187.69-163.42-52.3-25.49-101.2-31.55-199-43.68-97-12-99.36-.13-140.76-14.56-60.09-20.94-99.13-63.87-174.75-148.86C276.58,49.65,271.32,20.86,224.83,6.72c-54.61-16.6-120.5.89-165,42.07-4.56,4.22-77.48,73.62-55,148.86,19.77,66.21,106.57,114,203.86,92.22"/></g></g></svg>