<svg id="ArtStation-logomark-white" xmlns="http://www.w3.org/2000/svg" width="33.784" height="29.729" viewBox="0 0 33.784 29.729">
  <path id="Tracciato_1" data-name="Tracciato 1" d="M51.4,123.3l2.842,4.918h0a3.43,3.43,0,0,0,3.034,1.884H76.211l-3.928-6.8H51.4Z" transform="translate(-51.4 -100.373)" fill="#2e2d3a"/>
  <path id="Tracciato_2" data-name="Tracciato 2" d="M113.432,74.459a3.4,3.4,0,0,0-.543-1.852L101.777,53.32a3.383,3.383,0,0,0-3-1.82H92.9l17.148,29.7,2.714-4.694A3.513,3.513,0,0,0,113.432,74.459Z" transform="translate(-79.648 -51.5)" fill="#2e2d3a"/>
  <path id="Tracciato_3" data-name="Tracciato 3" d="M75.5,79.852,67.864,66.6,60.2,79.852Z" transform="translate(-57.39 -61.778)" fill="#2e2d3a"/>
</svg>
