<svg width="1424" height="514" viewBox="0 0 1424 514" fill="none" xmlns="http://www.w3.org/2000/svg">
<path d="M937.461 511.416V376.316H966.411L1025.66 465.096V376.316H1054.61V511.416H1025.66L966.411 423.022V511.416H937.461Z" fill="black"/>
<path d="M853.66 513.732C840.794 513.732 829.535 510.901 819.885 505.24C810.364 499.45 802.966 491.408 797.69 481.115C792.415 470.822 789.777 458.791 789.777 445.024C789.777 431.128 792.479 418.84 797.883 408.161C803.416 397.482 811.329 389.118 821.622 383.071C831.916 377.024 844.203 374 858.485 374C874.569 374 887.886 377.86 898.436 385.58C909.116 393.3 915.999 403.979 919.087 417.618H886.856C884.926 412.214 881.517 408.032 876.627 405.073C871.867 402.114 865.755 400.634 858.292 400.634C849.8 400.634 842.659 402.5 836.869 406.231C831.079 409.834 826.705 414.98 823.745 421.671C820.786 428.233 819.306 436.017 819.306 445.024C819.306 454.288 820.786 462.137 823.745 468.57C826.705 475.003 831.015 479.893 836.676 483.238C842.338 486.455 849.028 488.063 856.748 488.063C867.814 488.063 876.177 485.168 881.838 479.378C887.628 473.588 891.167 466.318 892.453 457.569H860.994V435.953H921.403V511.416H894.769L892.453 495.783C889.751 499.643 886.535 502.924 882.803 505.626C879.201 508.328 874.955 510.322 870.065 511.609C865.305 513.024 859.836 513.732 853.66 513.732Z" fill="black"/>
<path d="M746.896 511.416V376.316H775.846V511.416H746.896Z" fill="black"/>
<path d="M684.108 513.732C674.458 513.732 665.709 512.124 657.86 508.907C650.14 505.562 644.029 500.672 639.525 494.239C635.022 487.806 632.577 479.893 632.191 470.5H663.071C663.2 474.231 664.165 477.512 665.966 480.343C667.768 483.174 670.212 485.425 673.3 487.098C676.388 488.642 679.991 489.414 684.108 489.414C687.582 489.414 690.606 488.899 693.179 487.87C695.881 486.712 698.004 485.104 699.548 483.045C701.092 480.858 701.864 478.156 701.864 474.939C701.864 471.594 700.964 468.763 699.162 466.447C697.361 464.002 694.916 461.944 691.828 460.271C688.74 458.47 685.138 456.861 681.02 455.446C677.032 453.902 672.721 452.422 668.089 451.007C657.41 447.533 649.175 442.837 643.385 436.918C637.724 430.999 634.893 423.086 634.893 413.179C634.893 404.944 636.888 397.932 640.876 392.142C644.994 386.223 650.591 381.72 657.667 378.632C664.744 375.544 672.786 374 681.792 374C691.056 374 699.227 375.608 706.303 378.825C713.38 381.913 718.977 386.481 723.094 392.528C727.212 398.447 729.399 405.523 729.656 413.758H698.583C698.455 410.927 697.618 408.354 696.074 406.038C694.659 403.722 692.665 401.856 690.091 400.441C687.647 399.026 684.752 398.318 681.406 398.318C678.447 398.189 675.745 398.64 673.3 399.669C670.984 400.57 669.054 402.049 667.51 404.108C666.095 406.038 665.387 408.483 665.387 411.442C665.387 414.273 666.095 416.782 667.51 418.969C669.054 421.028 671.113 422.829 673.686 424.373C676.388 425.788 679.476 427.139 682.95 428.426C686.553 429.713 690.477 430.999 694.723 432.286C701.543 434.602 707.783 437.368 713.444 440.585C719.234 443.673 723.866 447.79 727.34 452.937C730.943 457.955 732.744 464.646 732.744 473.009C732.744 480.343 730.814 487.098 726.954 493.274C723.223 499.45 717.755 504.404 710.549 508.135C703.473 511.866 694.659 513.732 684.108 513.732Z" fill="black"/>
<path d="M530.887 511.416V376.316H621.404V399.669H559.837V431.514H615.614V453.902H559.837V488.063H621.404V511.416H530.887Z" fill="black"/>
<path d="M401.02 511.416V376.316H447.919C463.616 376.316 476.547 379.147 486.712 384.808C497.005 390.341 504.596 398.19 509.486 408.354C514.504 418.39 517.013 430.228 517.013 443.866C517.013 457.376 514.504 469.214 509.486 479.378C504.596 489.414 497.005 497.263 486.712 502.924C476.547 508.586 463.616 511.416 447.919 511.416H401.02ZM429.97 486.519H446.182C456.604 486.519 464.838 484.847 470.886 481.501C476.933 478.027 481.179 473.138 483.624 466.833C486.197 460.4 487.484 452.744 487.484 443.866C487.484 434.86 486.197 427.204 483.624 420.899C481.179 414.466 476.933 409.577 470.886 406.231C464.838 402.757 456.604 401.02 446.182 401.02H429.97V486.519Z" fill="black"/>
<path d="M249.279 511.416V376.316H301.775C312.712 376.316 321.783 378.246 328.988 382.106C336.322 385.838 341.726 390.856 345.2 397.16C348.803 403.465 350.604 410.477 350.604 418.197C350.604 425.403 348.867 432.158 345.393 438.462C342.048 444.767 336.773 449.849 329.567 453.709C322.362 457.569 313.034 459.499 301.582 459.499H278.229V511.416H249.279ZM318.952 511.416L291.739 452.358H322.812L351.762 511.416H318.952ZM278.229 438.655H300.038C307.244 438.655 312.519 436.918 315.864 433.444C319.338 429.97 321.075 425.274 321.075 419.355C321.075 413.565 319.338 408.998 315.864 405.652C312.519 402.178 307.244 400.441 300.038 400.441H278.229V438.655Z" fill="black"/>
<path d="M168.195 513.732C154.943 513.732 143.298 510.773 133.262 504.854C123.226 498.935 115.313 490.765 109.523 480.343C103.862 469.792 101.031 457.633 101.031 443.866C101.031 430.099 103.862 418.004 109.523 407.582C115.313 397.031 123.226 388.797 133.262 382.878C143.298 376.959 154.943 374 168.195 374C181.448 374 193.157 376.959 203.321 382.878C213.486 388.797 221.335 397.031 226.867 407.582C232.529 418.004 235.359 430.099 235.359 443.866C235.359 457.633 232.529 469.792 226.867 480.343C221.335 490.765 213.486 498.935 203.321 504.854C193.157 510.773 181.448 513.732 168.195 513.732ZM168.195 487.677C176.044 487.677 182.735 485.876 188.267 482.273C193.929 478.67 198.303 473.652 201.391 467.219C204.479 460.657 206.023 452.873 206.023 443.866C206.023 434.859 204.479 427.139 201.391 420.706C198.303 414.144 193.929 409.126 188.267 405.652C182.735 402.049 176.044 400.248 168.195 400.248C160.604 400.248 153.978 402.049 148.316 405.652C142.655 409.126 138.28 414.144 135.192 420.706C132.104 427.139 130.56 434.859 130.56 443.866C130.56 452.873 132.104 460.657 135.192 467.219C138.28 473.652 142.655 478.67 148.316 482.273C153.978 485.876 160.604 487.677 168.195 487.677Z" fill="black"/>
<path d="M4.24609 511.416V376.316H93.9911V399.669H33.1961V432.479H81.0601V455.06H33.1961V511.416H4.24609Z" fill="black"/>
<path d="M1333.33 324.416V189.316H1423.85V212.669H1362.28V244.514H1418.06V266.902H1362.28V301.063H1423.85V324.416H1333.33Z" fill="black"/>
<path d="M1250.85 324.416V278.096L1204.72 189.316H1237.53L1268.22 254.164H1262.81L1293.31 189.316H1325.73L1279.8 278.096V324.416H1250.85Z" fill="black"/>
<path d="M1109.59 324.416V189.316H1200.11V212.669H1138.54V244.514H1194.32V266.902H1138.54V301.063H1200.11V324.416H1109.59Z" fill="black"/>
<path d="M938.441 324.416V189.316H967.391L1026.64 278.096V189.316H1055.59V324.416H1026.64L967.391 236.022V324.416H938.441Z" fill="black"/>
<path d="M797.807 324.416L847.022 189.316H880.218L929.433 324.416H898.746L863.427 221.933L828.108 324.416H797.807ZM819.23 294.887L826.95 272.499H897.781L905.308 294.887H819.23Z" fill="black"/>
<path d="M724.034 324.416V189.316H752.984V324.416H724.034ZM639.307 324.416V189.316H668.257V324.416H639.307ZM664.59 267.095V243.742H728.666V267.095H664.59Z" fill="black"/>
<path d="M560.87 324.416V212.669H521.691V189.316H628.999V212.669H589.82V324.416H560.87Z" fill="black"/>
<path d="M482.479 324.416V189.316H511.429V324.416H482.479Z" fill="black"/>
<path d="M317.81 324.416L282.877 189.316H313.757L335.566 291.992L361.814 189.316H393.852L419.135 291.799L441.137 189.316H472.403L436.312 324.416H401.572L377.447 230.039L352.55 324.416H317.81Z" fill="black"/>
<path d="M1147.62 137.416V2.31641H1194.52C1210.22 2.31641 1223.15 5.14708 1233.31 10.8084C1243.6 16.3411 1251.2 24.1897 1256.09 34.3544C1261.1 44.3904 1263.61 56.2277 1263.61 69.8664C1263.61 83.3764 1261.1 95.2138 1256.09 105.378C1251.2 115.414 1243.6 123.263 1233.31 128.924C1223.15 134.586 1210.22 137.416 1194.52 137.416H1147.62ZM1176.57 112.519H1192.78C1203.2 112.519 1211.44 110.847 1217.49 107.501C1223.53 104.027 1227.78 99.1381 1230.22 92.8334C1232.8 86.4001 1234.08 78.7444 1234.08 69.8664C1234.08 60.8597 1232.8 53.2041 1230.22 46.8994C1227.78 40.4661 1223.53 35.5767 1217.49 32.2314C1211.44 28.7574 1203.2 27.0204 1192.78 27.0204H1176.57V112.519Z" fill="black"/>
<path d="M1031.7 137.416V2.31641H1084.2C1095.13 2.31641 1104.2 4.24641 1111.41 8.10641C1118.74 11.8377 1124.15 16.8557 1127.62 23.1604C1131.22 29.4651 1133.02 36.4774 1133.02 44.1974C1133.02 51.4027 1131.29 58.1577 1127.81 64.4624C1124.47 70.7671 1119.19 75.8494 1111.99 79.7094C1104.78 83.5694 1095.45 85.4994 1084 85.4994H1060.65V137.416H1031.7ZM1101.37 137.416L1074.16 78.3584H1105.23L1134.18 137.416H1101.37ZM1060.65 64.6554H1082.46C1089.66 64.6554 1094.94 62.9184 1098.28 59.4444C1101.76 55.9704 1103.5 51.2741 1103.5 45.3554C1103.5 39.5654 1101.76 34.9977 1098.28 31.6524C1094.94 28.1784 1089.66 26.4414 1082.46 26.4414H1060.65V64.6554Z" fill="black"/>
<path d="M891.064 137.416L940.279 2.31641H973.475L1022.69 137.416H992.003L956.684 34.9334L921.365 137.416H891.064ZM912.487 107.887L920.207 85.4994H991.038L998.565 107.887H912.487Z" fill="black"/>
<path d="M791.111 137.416V115.221L851.906 26.2484H791.304V2.31641H885.102V24.5114L823.921 113.484H885.295V137.416H791.111Z" fill="black"/>
<path d="M747.266 137.416V2.31641H776.216V137.416H747.266Z" fill="black"/>
<path d="M582.597 137.416L547.664 2.31641H578.544L600.353 104.992L626.601 2.31641H658.639L683.922 104.799L705.924 2.31641H737.19L701.099 137.416H666.359L642.234 43.0394L617.337 137.416H582.597Z" fill="black"/>
<path d="M414.016 137.416V2.31641H504.533V25.6694H442.966V57.5144H498.743V79.9024H442.966V114.063H504.533V137.416H414.016Z" fill="black"/>
<path d="M284.148 137.416V2.31641H331.047C346.745 2.31641 359.676 5.14708 369.84 10.8084C380.134 16.3411 387.725 24.1897 392.614 34.3544C397.632 44.3904 400.141 56.2277 400.141 69.8664C400.141 83.3764 397.632 95.2138 392.614 105.378C387.725 115.414 380.134 123.263 369.84 128.924C359.676 134.586 346.745 137.416 331.047 137.416H284.148ZM313.098 112.519H329.31C339.732 112.519 347.967 110.847 354.014 107.501C360.062 104.027 364.308 99.1381 366.752 92.8334C369.326 86.4001 370.612 78.7444 370.612 69.8664C370.612 60.8597 369.326 53.2041 366.752 46.8994C364.308 40.4661 360.062 35.5767 354.014 32.2314C347.967 28.7574 339.732 27.0204 329.31 27.0204H313.098V112.519Z" fill="black"/>
<path d="M203.062 139.732C189.81 139.732 178.165 136.773 168.129 130.854C158.093 124.935 150.18 116.765 144.39 106.343C138.729 95.7923 135.898 83.6333 135.898 69.866C135.898 56.0987 138.729 44.004 144.39 33.582C150.18 23.0313 158.093 14.7967 168.129 8.878C178.165 2.95933 189.81 0 203.062 0C216.315 0 228.024 2.95933 238.188 8.878C248.353 14.7967 256.202 23.0313 261.734 33.582C267.396 44.004 270.226 56.0987 270.226 69.866C270.226 83.6333 267.396 95.7923 261.734 106.343C256.202 116.765 248.353 124.935 238.188 130.854C228.024 136.773 216.315 139.732 203.062 139.732ZM203.062 113.677C210.911 113.677 217.602 111.876 223.134 108.273C228.796 104.67 233.17 99.6523 236.258 93.219C239.346 86.657 240.89 78.8727 240.89 69.866C240.89 60.8593 239.346 53.1393 236.258 46.706C233.17 40.144 228.796 35.126 223.134 31.652C217.602 28.0493 210.911 26.248 203.062 26.248C195.471 26.248 188.845 28.0493 183.183 31.652C177.522 35.126 173.147 40.144 170.059 46.706C166.971 53.1393 165.427 60.8593 165.427 69.866C165.427 78.8727 166.971 86.657 170.059 93.219C173.147 99.6523 177.522 104.67 183.183 108.273C188.845 111.876 195.471 113.677 203.062 113.677Z" fill="black"/>
<path d="M65.427 139.732C51.917 139.732 40.2727 136.837 30.494 131.047C20.7153 125.128 13.1883 116.958 7.913 106.536C2.63767 95.9853 0 83.8907 0 70.252C0 56.356 2.63767 44.197 7.913 33.775C13.1883 23.2243 20.7153 14.9897 30.494 9.071C40.2727 3.02366 51.917 0 65.427 0C82.1537 0 95.7923 4.18167 106.343 12.545C117.022 20.9083 123.649 32.6813 126.222 47.864H94.57C93.026 41.0447 89.745 35.7693 84.727 32.038C79.709 28.178 73.2113 26.248 65.234 26.248C57.6427 26.248 51.145 28.0493 45.741 31.652C40.4657 35.2547 36.4127 40.337 33.582 46.899C30.88 53.3323 29.529 61.1167 29.529 70.252C29.529 79.13 30.88 86.85 33.582 93.412C36.4127 99.8453 40.4657 104.863 45.741 108.466C51.145 111.94 57.6427 113.677 65.234 113.677C73.2113 113.677 79.6447 112.004 84.534 108.659C89.552 105.185 92.8973 100.231 94.57 93.798H126.222C123.649 108.08 117.022 119.338 106.343 127.573C95.7923 135.679 82.1537 139.732 65.427 139.732Z" fill="black"/>
</svg>
