<svg id="github" xmlns="http://www.w3.org/2000/svg" width="33.742" height="33.04" viewBox="0 0 33.742 33.04">
  <g id="Raggruppa_1" data-name="Raggruppa 1" transform="translate(0 0)">
    <path id="Tracciato_4" data-name="Tracciato 4" d="M16.869,5.329A16.949,16.949,0,0,0,11.54,38.34c.844.156,1.151-.367,1.151-.816,0-.4-.015-1.468-.023-2.881-4.692,1.023-5.684-2.271-5.684-2.271a4.473,4.473,0,0,0-1.873-2.478c-1.533-1.05.114-1.029.114-1.029a3.543,3.543,0,0,1,2.583,1.746,3.586,3.586,0,0,0,4.912,1.407,3.616,3.616,0,0,1,1.071-2.265c-3.745-.428-7.685-1.881-7.685-8.37a6.566,6.566,0,0,1,1.738-4.547,6.1,6.1,0,0,1,.164-4.481s1.417-.456,4.64,1.736a15.925,15.925,0,0,1,8.448,0c3.22-2.191,4.635-1.736,4.635-1.736a6.113,6.113,0,0,1,.169,4.481,6.553,6.553,0,0,1,1.734,4.547c0,6.506-3.944,7.938-7.7,8.358a4.052,4.052,0,0,1,1.145,3.136c0,2.265-.021,4.091-.021,4.646,0,.453.3.981,1.16.814A16.95,16.95,0,0,0,16.869,5.329Z" transform="translate(0 -5.329)" fill="#2e2d3a"/>
  </g>
</svg>
