<svg xmlns="http://www.w3.org/2000/svg" width="48.202" height="33.743" viewBox="0 0 48.202 33.743">
  <g id="Group_35" data-name="Group 35" transform="translate(2368.408 -3316)">
    <path id="Path_197" data-name="Path 197" d="M47.194,5.269a6.036,6.036,0,0,0-4.262-4.262C39.175,0,24.1,0,24.1,0S9.027,0,5.269,1.008A6.036,6.036,0,0,0,1.008,5.269C0,9.027,0,16.871,0,16.871s0,7.845,1.008,11.6a6.036,6.036,0,0,0,4.262,4.261C9.027,33.743,24.1,33.743,24.1,33.743s15.074,0,18.832-1.008a6.036,6.036,0,0,0,4.262-4.261c1.008-3.758,1.008-11.6,1.008-11.6S48.2,9.027,47.194,5.269Z" transform="translate(-2368.408 3316)" fill="#787878"/>
    <path id="Path_198" data-name="Path 198" d="M65.3,47.122l12.523-7.229L65.3,32.663Z" transform="translate(-2414.428 3292.979)" fill="#fff"/>
  </g>
</svg>
