<svg xmlns="http://www.w3.org/2000/svg" width="41.526" height="33.743" viewBox="0 0 41.526 33.743">
  <path id="icon-twitter" d="M38.275,9.9c.025.366.025.732.025,1.1,0,11.258-8.57,24.241-24.241,24.241v-.007A24.119,24.119,0,0,1,1,31.414a17.33,17.33,0,0,0,2.028.123,17.108,17.108,0,0,0,10.581-3.654,8.53,8.53,0,0,1-7.959-5.916A8.492,8.492,0,0,0,9.5,21.82a8.52,8.52,0,0,1-6.834-8.351v-.108a8.466,8.466,0,0,0,3.867,1.066A8.53,8.53,0,0,1,3.892,3.052a24.181,24.181,0,0,0,17.559,8.9,8.528,8.528,0,0,1,14.519-7.77,17.1,17.1,0,0,0,5.41-2.068,8.551,8.551,0,0,1-3.745,4.712,16.944,16.944,0,0,0,4.892-1.341A17.308,17.308,0,0,1,38.275,9.9Z" transform="translate(-1 -1.497)" fill="#787878"/>
</svg>
