<?xml version="1.0" encoding="utf-8"?>
<!-- Generator: Adobe Illustrator 23.0.0, SVG Export Plug-In . SVG Version: 6.00 Build 0)  -->
<svg version="1.1" id="Livello_1" xmlns="http://www.w3.org/2000/svg" xmlns:xlink="http://www.w3.org/1999/xlink" x="0px" y="0px"
	 viewBox="0 0 595.28 841.89" style="enable-background:new 0 0 595.28 841.89;" xml:space="preserve">
<style type="text/css">
	.st0{fill:#030405;}
	.st1{fill:#040506;}
	.st2{fill:#030304;}
	.st3{fill:#040405;}
	.st4{fill:#121112;}
	.st5{fill:#F1C513;}
	.st6{fill:#0D0D10;}
	.st7{fill:#121214;}
	.st8{fill:#181819;}
	.st9{fill:#0E0E10;}
	.st10{fill:#101012;}
	.st11{fill:#161517;}
	.st12{fill:#0D0C0E;}
	.st13{fill:#100F11;}
	.st14{fill:#111012;}
	.st15{fill:#09090A;}
	.st16{fill:#0B0B0D;}
</style>
<g>
	<path class="st0" d="M140.89,165.09c3.46-0.96,7.02-1.96,10.58-2.93c17.24-4.72,34.47-9.48,51.73-14.12
		c10.07-2.71,20.23-3.4,30.23,0.23c16.85,6.12,26.74,18.12,29.4,35.9c0.5,3.37,0.65,6.81,0.65,10.22
		c0.04,44.08-0.1,88.16,0.1,132.24c0.07,16.27-4.44,30.95-13.35,44.39c-8.78,13.23-19.79,24.07-34.1,31.29
		c-6.41,3.23-13.28,5.13-20.17,7c-18.08,4.9-36.13,9.88-54.2,14.82c-0.2,0.05-0.41,0.04-0.86,0.07
		C140.89,337.9,140.89,251.64,140.89,165.09z M179.96,374.86c7.8-2.14,15.23-4.42,22.77-6.21c12.64-3,22.76-17.15,22.7-29.65
		c-0.23-44.5-0.08-89-0.1-133.49c0-1.6-0.09-3.21-0.34-4.79c-0.98-6.26-4.54-10.46-10.46-12.62c-4.07-1.49-8.2-0.92-12.25,0.17
		c-6.78,1.83-13.54,3.73-20.3,5.62c-0.69,0.19-1.35,0.49-2.02,0.74C179.96,254.68,179.96,314.57,179.96,374.86z"/>
	<path class="st1" d="M172.9,553.45c0-23.22,0.08-46.44-0.03-69.66c-0.07-13.02,2.95-25.23,9.29-36.52
		c9.32-16.58,21.88-29.99,39.22-38.42c10.31-5.01,21.16-7.91,32.7-7.46c19.54,0.76,37.73,14.43,41.49,35.34
		c0.77,4.29,1.22,8.7,1.23,13.06c0.09,45.9-0.08,91.8,0.12,137.71c0.08,17.9-5.2,33.82-15.63,48.18
		c-10.48,14.42-23.54,25.59-40.51,31.71c-8.1,2.92-16.4,4.48-25.07,4.29c-18.88-0.42-35.82-13.52-40.83-31.75
		c-1.57-5.73-2-11.55-2-17.46C172.92,599.46,172.9,576.45,172.9,553.45z M255.94,530.25c0-22.67,0.01-45.35-0.01-68.02
		c0-2.35,0.06-4.74-0.36-7.03c-1.57-8.69-9.28-14.58-19.74-12.61c-14.38,2.7-24.75,17.5-24.64,30.35
		c0.37,46.3,0.14,92.61,0.15,138.92c0,1.5,0,3,0.15,4.48c0.72,6.98,6.37,12.7,13.27,13.62c6.12,0.82,11.73-0.75,16.67-4.13
		c9.39-6.43,14.64-15.16,14.56-26.93C255.83,576.02,255.94,553.14,255.94,530.25z"/>
	<path class="st1" d="M363.71,481.77c20.53-5.61,41.13-11.24,62.06-16.97c0,1.49,0,2.64,0,3.79c0,28.25-0.14,56.49,0.05,84.74
		c0.11,16.61-4.64,31.58-14.01,45.15c-9.78,14.18-22.04,25.49-38.1,32.32c-8.44,3.59-17.24,5.86-26.36,5.91
		c-21.18,0.13-39.18-13.27-44.03-33.62c-1.12-4.71-1.52-9.49-1.52-14.31c-0.01-46.76,0.01-93.51-0.02-140.27
		c-0.01-17.33,5.76-32.64,15.9-46.46c10.82-14.75,24.35-25.93,41.9-31.86c8.71-2.94,17.63-4.42,26.78-3.45
		c17.39,1.85,33.1,14.13,37.56,32.39c0.98,4.02,1.66,8.21,1.75,12.34c0.24,10.58,0.08,21.18,0.08,32.19
		c-13.36,3.66-26.74,7.33-40.44,11.09c-0.09-1.05-0.21-1.85-0.22-2.64c-0.01-8.77,0.05-17.55-0.05-26.32
		c-0.03-2.43-0.24-4.93-0.84-7.28c-1.98-7.75-10.09-12.45-17.86-11.24c-12.63,1.97-22.81,11.83-25.41,24.39
		c-0.28,1.35-0.43,2.75-0.43,4.13c-0.02,47.72-0.03,95.44-0.01,143.16c0,8.02,4.43,13.96,11.86,15.89
		c4.04,1.04,8.02,0.37,11.96-0.88c9.88-3.12,20.87-14.9,20.79-28.14c-0.1-16.16-0.02-32.31-0.03-48.47c0-0.52-0.07-1.03-0.14-1.93
		c-7.14,1.94-14.08,3.82-21.01,5.7C363.25,519.08,363.03,486.02,363.71,481.77z"/>
	<path class="st0" d="M432.79,214.77c0-22.04,0.39-44.09-0.1-66.12c-0.59-26.37,10.36-47.32,28.94-64.92
		c10.94-10.37,23.94-17.1,38.77-19.87c17.15-3.21,32.49,0.27,44.81,13.41c6.52,6.95,9.88,15.4,11,24.75
		c0.41,3.39,0.52,6.83,0.52,10.24c0.03,45.58-0.11,91.16,0.09,136.74c0.07,16.95-4.61,32.22-14.19,46.07
		c-10,14.46-22.54,25.92-39.05,32.6c-8.78,3.55-17.86,5.72-27.39,5.49c-20.31-0.5-39.18-14.74-42.52-37.23
		c-0.58-3.9-0.84-7.87-0.85-11.81C432.75,260.99,432.79,237.88,432.79,214.77z M515.84,191.83c0-20.75,0-41.5,0-62.25
		c0-3.42,0.1-6.85-0.03-10.27c-0.22-5.57-2.44-10.15-7.24-13.2c-5.31-3.38-10.92-3.05-16.6-1.09
		c-12.48,4.31-20.82,16.32-20.82,30.04c-0.01,45.78-0.01,91.56,0,137.34c0,1.39,0.07,2.78,0.16,4.17
		c0.56,9.63,8.72,16.62,19.56,14.79c16.12-2.72,25.31-18.64,25.1-29.9C515.55,238.26,515.84,215.05,515.84,191.83z"/>
	<path class="st2" d="M68.26,224.68c12.91-3.55,25.83-7.11,39.09-10.75c0,149.5,0,298.67,0,448.09
		c22.56-6.16,44.78-12.23,67.25-18.36c0,13.15,0,25.85,0,38.99c-35.23,9.64-70.59,19.31-106.2,29.05c-0.12-0.97-0.25-1.66-0.28-2.35
		c-0.04-0.96-0.01-1.93-0.01-2.89c0-159.08,0-318.16-0.01-477.24c0-1.39-0.09-2.77-0.14-4.16C68.17,225.03,68.27,224.9,68.26,224.68
		z"/>
	<path class="st0" d="M335.53,261.2c0,23.68,0,46.89,0,70.48c23.99-6.55,47.77-13.05,72.06-19.68c0.01,13.19,0,26.18,0.01,39.42
		c-37.05,10.13-73.98,20.23-111.15,30.4c0-86.51,0-172.78,0-259.3c36.84-10.07,73.75-20.17,110.95-30.34c0,13.23,0,26.12,0,39.41
		c-23.78,6.51-47.76,13.08-71.82,19.67c0,23.46,0,46.75,0,70.47c17.51-4.78,34.89-9.52,52.41-14.3c0,13.27,0,26.29,0,39.41
		C370.43,251.64,353.01,256.41,335.53,261.2z"/>
	<path class="st3" d="M557.35,318.92c-2.02,6.41-3.89,12.4-5.79,18.37c-15.27,47.98-30.56,95.96-45.8,143.96
		c-0.54,1.69-0.8,3.55-0.81,5.32c-0.05,34.03-0.03,68.06-0.03,102.08c0,1.17,0,2.33,0,3.66c-13.05,3.57-25.95,7.1-39.19,10.72
		c0-1.44,0-2.58,0-3.73c0-33.92-0.01-67.84,0.02-101.76c0-1.95-0.32-3.75-1.02-5.59c-16.87-43.92-33.69-87.86-50.52-131.8
		c-0.22-0.58-0.42-1.17-0.75-2.11c14.4-3.94,28.61-7.83,43.08-11.79c9.58,28.16,19.12,56.18,28.84,84.77
		c1.65-5.69,3.15-10.8,4.61-15.93c7.77-27.3,15.55-54.59,23.25-81.91c0.56-1.98,1.45-2.9,3.5-3.44
		c12.75-3.39,25.45-6.96,38.17-10.46C555.51,319.12,556.15,319.09,557.35,318.92z"/>
	<path class="st4" d="M558.06,594.08c0,2.41,0,4.42,0,6.91C394.54,645.71,230.88,690.47,66.94,735.3c0-2.43,0-4.59,0-6.91
		C230.61,683.63,394.24,638.88,558.06,594.08z"/>
	<path class="st5" d="M68.26,224.68c0.02,0.22-0.08,0.35-0.3,0.38c-11.84,3.21-23.68,6.43-35.52,9.64c-1.02,0.28-2.05,0.5-3.24,0.79
		c0-12.99,0-25.8,0-39.1c12.76-3.49,25.64-7.01,39.06-10.68C68.26,199.09,68.26,211.88,68.26,224.68z"/>
	<path class="st6" d="M134.04,784.08c-2.89,0.81-5.61,1.58-8.74,2.45c-0.83-3.14-1.63-6.18-2.43-9.22
		c-0.82-3.08-1.64-6.16-2.54-9.56c-1.74,0.47-3.33,0.9-5.11,1.37c0,6.7,0,13.3,0,20.11c-2.79,0.77-5.42,1.49-8.24,2.27
		c0-17.92,0-35.63,0-53.66c5.4-1.43,10.74-3.59,16.47-4.08c5.2-0.44,8.13,1.63,8.7,6.73c0.51,4.53,0.37,9.18-0.02,13.73
		c-0.18,2.11-1.37,4.28-2.58,6.1c-1.08,1.63-1.15,2.99-0.64,4.74c1.62,5.53,3.1,11.09,4.62,16.64
		C133.73,782.41,133.84,783.13,134.04,784.08z M115.24,760.89c1.77-0.49,3.3-0.85,4.79-1.34c2.3-0.75,3.98-2.34,4.17-4.73
		c0.27-3.27,0.22-6.58,0.05-9.86c-0.1-1.97-1.43-2.91-3.26-2.53c-1.94,0.4-3.84,1.04-5.76,1.58
		C115.24,749.65,115.24,755.06,115.24,760.89z"/>
	<path class="st7" d="M472.29,691.63c0-18.05,0-35.84,0-53.81c4.83-1.29,9.59-2.78,14.44-3.81c4.9-1.04,9.81,2.47,10.58,7.01
		c0.21,1.26,0.36,2.54,0.36,3.81c0.03,8.65-0.14,17.3,0.06,25.95c0.2,8.68-6.89,16.29-13.6,17.61
		C480.21,689.16,476.38,690.49,472.29,691.63z M480.48,681.16c1.48-0.41,2.81-0.75,4.11-1.15c3.4-1.04,4.88-3,4.92-6.53
		c0.03-2.88,0.01-5.77,0.01-8.65c0-6.09,0.03-12.18-0.01-18.27c-0.02-3.2-1.64-4.47-4.73-3.74c-1.5,0.35-2.95,0.94-4.29,1.38
		C480.48,656.67,480.48,668.83,480.48,681.16z"/>
	<path class="st8" d="M451,643.67c3.03-0.81,5.68-1.51,8.54-2.28c0.07,0.96,0.18,1.67,0.18,2.38c0.01,12.72,0.03,25.45,0,38.17
		c-0.02,7.62-3.79,12.98-10.43,16.31c-2.56,1.28-5.35,2.04-8.35,1.17c-4.01-1.16-6.4-3.75-6.94-7.84c-0.08-0.63-0.1-1.28-0.1-1.92
		c-0.01-13.15-0.01-26.3,0-39.45c0-0.52,0.06-1.04,0.11-1.84c2.55-0.7,5.08-1.39,7.98-2.19c0,1.35,0,2.38,0,3.42
		c0,12.19,0.01,24.38-0.01,36.57c0,1.87-0.07,3.74,2.04,4.6c1.79,0.74,4.06-0.17,5.65-2.07c1.19-1.41,1.36-3.04,1.36-4.8
		c-0.03-12.3-0.02-24.59-0.02-36.89C451,645.96,451,644.9,451,643.67z"/>
	<path class="st9" d="M556.34,641.87c0,4.81,0.04,9.62-0.01,14.43c-0.08,8.54-7.14,16.21-15.66,17.07
		c-4.94,0.5-9.53-3.47-10.04-8.71c-0.06-0.64-0.03-1.28-0.03-1.92c0-9.3-0.02-18.6,0-27.9c0.02-8.76,6.49-16.35,15.1-17.61
		c4.54-0.67,10.52,2.47,10.6,8.93c0.06,5.24,0.01,10.47,0.01,15.71C556.32,641.87,556.33,641.87,556.34,641.87z M538.78,645.94
		C538.78,645.94,538.78,645.94,538.78,645.94c0.01,5.02-0.06,10.05,0.03,15.07c0.06,2.98,2.34,4.35,5.07,3.13
		c2.58-1.15,3.92-3.21,3.97-6.05c0.04-2.35,0.01-4.7,0.01-7.05c0-7.05,0-14.11,0-21.16c0-1.46-0.29-2.85-1.67-3.57
		c-1.55-0.81-3.14-0.52-4.54,0.46c-1.85,1.3-2.92,3.02-2.89,5.39C538.81,636.75,538.78,641.34,538.78,645.94z"/>
	<path class="st9" d="M209.7,763.41c-2.95,0.8-5.67,1.54-8.65,2.34c-0.67-3.95-1.29-7.6-1.97-11.65c-2.49,0.67-4.95,1.18-7.29,2.04
		c-0.63,0.23-1.1,1.46-1.25,2.3c-0.62,3.46-1.09,6.95-1.65,10.64c-2.71,0.74-5.41,1.47-8.56,2.32c0.66-4.27,1.22-8.05,1.83-11.81
		c2.27-13.91,4.6-27.81,6.77-41.73c0.31-2.01,1-2.96,3.01-3.36c2.8-0.56,5.52-1.47,8.72-2.36
		C203.68,729.25,206.67,746.21,209.7,763.41z M197.89,746.3c-0.9-6.15-1.76-12.12-2.63-18.1c-0.14-0.01-0.29-0.02-0.43-0.04
		c-0.9,6.49-1.79,12.98-2.72,19.7C194.22,747.3,195.94,746.83,197.89,746.3z"/>
	<path class="st10" d="M287.12,727.72c2.12-13.6,4.23-27.19,6.37-40.93c2.76-0.76,5.39-1.49,8.52-2.36
		c-1.28,9.58-3.17,18.8-4.69,28.07c-1.54,9.37-3.26,18.71-4.94,28.29c-3.67,1-7.32,2.01-11.28,3.09
		c-3.22-17.14-6.38-33.97-9.6-51.08c2.97-0.8,5.68-1.53,8.65-2.33c2.16,12.69,4.26,25.06,6.36,37.42
		C286.72,727.83,286.92,727.77,287.12,727.72z"/>
	<path class="st11" d="M86.42,777.39c2.93-0.8,5.47-1.49,8.01-2.19c2.82,11.87-2.82,21.37-12.87,23.92
		c-7.41,1.88-12.36-2.84-12.36-9.47c0-9.73-0.09-19.47,0.03-29.2c0.1-7.9,6.15-15.05,13.86-16.75c6.19-1.37,11.41,2.44,11.88,8.79
		c0.16,2.23,0.03,4.49,0.03,7.05c-2.71,0.74-5.43,1.49-8.58,2.36c0-2.29,0.08-4.19-0.02-6.08c-0.17-3.33-2.63-4.76-5.54-3.17
		c-2.2,1.2-3.51,3.13-3.52,5.71c-0.03,9.52-0.06,19.04,0.01,28.56c0.03,3.49,2.64,4.94,5.7,3.23c2.09-1.16,3.34-2.97,3.36-5.45
		C86.43,782.34,86.42,780,86.42,777.39z"/>
	<path class="st12" d="M169.34,774.44c-7.44,2.05-14.91,4.1-22.37,6.16c-0.81-2.2-1.17-43.64-0.44-53.66
		c7.43-2.03,14.96-4.1,22.78-6.24c0,2.93,0,5.44,0,8.26c-3.6,0.99-7.26,2.01-10.93,2.99c-3.82,1.02-3.82,1-3.82,5.08
		c0,3.3,0,6.6,0,10.34c3.69-0.95,7.1-1.83,10.74-2.76c0,2.9,0,5.51,0,8.19c-3.54,1-7,1.98-10.58,2.99c0,4.69,0,9.23,0,14.28
		c4.91-1.28,9.65-2.51,14.62-3.81C169.34,769.11,169.34,771.63,169.34,774.44z"/>
	<path class="st13" d="M359.26,707.82c2.43-0.84,4.81-1.66,7.45-2.57c0.36,1.26,0.6,2.37,0.99,3.44c1.34,3.66,4.34,4.42,7.28,1.86
		c3.67-3.19,3.59-8.63-0.29-11.74c-1.74-1.4-3.71-2.51-5.54-3.81c-1.65-1.18-3.31-2.36-4.85-3.67c-3.66-3.11-4.83-7.21-4.31-11.82
		c0.92-8.11,5.82-13.56,13.69-15.33c6.66-1.5,11.49,2.09,11.75,9.21c-2.35,1.09-4.82,2.24-7.48,3.48c-0.41-1.16-0.67-2.18-1.12-3.11
		c-1.05-2.15-2.55-2.62-4.75-1.6c-3.25,1.51-4.58,6.23-2.84,10.04c1.02,2.23,2.76,3.75,4.82,4.98c1.64,0.99,3.35,1.9,4.9,3.01
		c6.4,4.58,8.42,10.8,6.06,17.94c-2.77,8.41-10.18,11.89-16.51,11.81c-3.26-0.04-5.74-1.53-7.34-4.35
		C359.85,713.25,359.02,710.74,359.26,707.82z"/>
	<path class="st14" d="M314.32,681.04c7.57-2.07,15.13-4.14,22.87-6.26c0,2.77,0,5.31,0,8.24c-4.73,1.33-9.6,2.7-14.61,4.11
		c0,4.67,0,9.34,0,14.3c3.55-0.92,6.92-1.8,10.53-2.74c0,2.7,0,5.2,0,8.15c-3.27,0.94-6.79,1.96-10.49,3.03c0,4.64,0,9.3,0,14.32
		c4.79-1.28,9.54-2.56,14.52-3.89c0,2.81,0,5.42,0,8.27c-7.5,2.05-15.05,4.11-22.81,6.22C314.32,716.73,314.32,699,314.32,681.04z"
		/>
	<path class="st15" d="M239.45,701.56c0,3.05,0,5.58,0,8.22c-2.82,0.83-5.55,1.62-8.39,2.45c0,15.08,0,30.01,0,45.27
		c-2.66,0.75-5.25,1.49-8.29,2.35c0-15.29,0-30.17,0-45.35c-3.05,0.77-5.69,1.44-8.53,2.16c0-2.83,0-5.45,0-8.21
		C222.57,706.17,230.83,703.91,239.45,701.56z"/>
	<path class="st16" d="M405.5,664.53c-3.14,0.78-5.78,1.44-8.61,2.15c0-2.91,0-5.44,0-8.18c8.34-2.28,16.61-4.54,25.1-6.86
		c0,2.84,0,5.46,0,8.24c-2.65,0.75-5.3,1.51-8.17,2.32c0,14.96,0,30.01,0,45.34c-2.74,0.77-5.37,1.51-8.31,2.34
		C405.5,694.68,405.5,679.78,405.5,664.53z"/>
	<path class="st16" d="M518.17,679.05c-2.62,0.71-5.24,1.42-8.04,2.18c0-17.97,0-35.69,0-53.67c2.59-0.72,5.2-1.45,8.04-2.23
		C518.17,643.32,518.17,661.1,518.17,679.05z"/>
	<path class="st16" d="M259.38,749.79c-2.5,0.69-5.12,1.42-7.95,2.21c0-18.06,0-35.84,0-53.73c2.62-0.71,5.16-1.41,7.95-2.17
		C259.38,714.03,259.38,731.78,259.38,749.79z"/>
</g>
</svg>
