<svg xmlns="http://www.w3.org/2000/svg" width="33.784" height="33.897" viewBox="0 0 33.784 33.897">
  <g id="linkedin" transform="translate(0 0.11)">
    <g id="Raggruppa_15" data-name="Raggruppa 15" transform="translate(0.042 10.589)">
      <g id="Raggruppa_14" data-name="Raggruppa 14">
        <rect id="Rettangolo_3" data-name="Rettangolo 3" width="7.546" height="23.198" fill="#2e2d3a"/>
      </g>
    </g>
    <g id="Raggruppa_17" data-name="Raggruppa 17" transform="translate(10.586 10.589)">
      <g id="Raggruppa_16" data-name="Raggruppa 16">
        <path id="Tracciato_8" data-name="Tracciato 8" d="M177.555,160.272c-.08-.025-.156-.053-.24-.076-.1-.023-.2-.042-.306-.059a6.764,6.764,0,0,0-1.354-.137c-4.4,0-7.189,3.2-8.109,4.435V160H160v23.2h7.546V170.545s5.7-7.942,8.109-2.109V183.2H183.2V167.544A7.524,7.524,0,0,0,177.555,160.272Z" transform="translate(-160 -160)" fill="#2e2d3a"/>
      </g>
    </g>
    <g id="Raggruppa_19" data-name="Raggruppa 19" transform="translate(0 0)">
      <g id="Raggruppa_18" data-name="Raggruppa 18" transform="translate(0 0)">
        <circle id="Ellisse_10" data-name="Ellisse 10" cx="3.5" cy="3.5" r="3.5" transform="translate(0 -0.11)" fill="#2e2d3a"/>
      </g>
    </g>
  </g>
</svg>
