<?xml version="1.0" standalone="no"?>
<!DOCTYPE svg PUBLIC "-//W3C//DTD SVG 20010904//EN"
 "http://www.w3.org/TR/2001/REC-SVG-20010904/DTD/svg10.dtd">
<svg version="1.0" xmlns="http://www.w3.org/2000/svg"
 width="845.000000pt" height="845.000000pt" viewBox="0 0 845.000000 845.000000"
 preserveAspectRatio="xMidYMid meet">
<metadata>
Created by potrace 1.14, written by Peter Selinger 2001-2017
</metadata>
<g transform="translate(0.000000,845.000000) scale(0.100000,-0.100000)"
fill="#000000" stroke="none">
<path d="M3998 8445 c-2 -2 -48 -6 -103 -9 -55 -3 -111 -8 -125 -10 -14 -3
-50 -7 -80 -10 -30 -4 -64 -8 -75 -10 -56 -10 -94 -16 -130 -22 -22 -3 -80
-15 -130 -26 -49 -11 -101 -22 -115 -24 -33 -6 -94 -22 -155 -41 -112 -34
-302 -96 -330 -108 -16 -8 -73 -30 -125 -50 -128 -50 -443 -205 -540 -266 -14
-9 -68 -42 -120 -75 -164 -101 -377 -260 -560 -419 -77 -66 -319 -315 -390
-400 -41 -49 -78 -92 -81 -95 -18 -16 -169 -224 -242 -333 -69 -103 -249 -415
-253 -437 0 -3 -20 -45 -43 -95 -53 -112 -61 -131 -101 -230 -17 -44 -35 -89
-40 -100 -20 -48 -79 -235 -111 -350 -43 -158 -101 -448 -114 -580 -4 -33 -8
-67 -10 -75 -25 -102 -26 -756 -1 -910 3 -14 7 -50 11 -81 3 -31 8 -67 10 -80
3 -13 7 -41 11 -63 3 -22 7 -43 9 -46 1 -3 6 -27 9 -54 4 -27 14 -79 22 -115
9 -36 17 -74 19 -83 11 -54 61 -230 96 -338 177 -542 457 -1031 843 -1475 90
-103 280 -293 376 -376 41 -35 77 -67 80 -70 28 -32 245 -193 390 -289 229
-153 554 -321 780 -405 25 -9 54 -21 65 -26 54 -24 309 -103 447 -138 163 -42
163 -42 303 -67 49 -8 92 -17 95 -18 3 -2 37 -7 76 -10 39 -4 80 -8 91 -10
134 -26 763 -27 938 -1 17 2 49 7 71 9 67 8 232 35 282 47 26 6 56 13 68 15
11 2 65 15 120 29 54 15 110 28 123 31 76 15 433 143 546 194 435 199 657 336
1020 627 120 96 344 314 471 458 318 360 570 772 761 1245 34 83 50 130 58
160 2 8 15 47 29 86 35 97 112 404 136 544 11 63 22 126 25 139 2 13 7 47 10
75 3 28 7 65 9 81 27 198 28 709 1 905 -2 14 -6 52 -10 85 -4 33 -8 71 -10 85
-3 14 -7 43 -10 65 -51 341 -190 786 -352 1125 -90 190 -107 221 -232 425
-441 721 -1148 1327 -1931 1654 -69 29 -134 57 -145 62 -76 33 -473 156 -565
173 -14 3 -81 16 -150 30 -69 13 -152 27 -184 31 -32 3 -62 7 -65 9 -3 2 -44
7 -91 11 -47 4 -98 9 -115 11 -37 5 -562 13 -567 9z"/>
</g>
</svg>
