<?xml version="1.0" standalone="no"?>
<!DOCTYPE svg PUBLIC "-//W3C//DTD SVG 20010904//EN"
 "http://www.w3.org/TR/2001/REC-SVG-20010904/DTD/svg10.dtd">
<svg version="1.0" xmlns="http://www.w3.org/2000/svg"
 width="2098.000000pt" height="2098.000000pt" viewBox="0 0 2098.000000 2098.000000"
 preserveAspectRatio="xMidYMid meet">
<metadata>
Created by potrace 1.14, written by Peter Selinger 2001-2017
</metadata>
<g transform="translate(0.000000,2098.000000) scale(0.100000,-0.100000)"
fill="#000000" stroke="none">
<path d="M10118 20975 c-1 -1 -66 -5 -143 -9 -234 -10 -379 -21 -555 -41 -70
-8 -100 -12 -175 -20 -52 -5 -200 -25 -302 -40 -18 -3 -50 -7 -70 -10 -21 -3
-49 -8 -63 -10 -14 -3 -42 -8 -64 -11 -21 -3 -47 -8 -57 -10 -11 -2 -27 -6
-38 -8 -10 -2 -34 -7 -52 -10 -19 -3 -81 -15 -139 -26 -58 -12 -116 -23 -130
-26 -14 -3 -41 -9 -60 -14 -19 -5 -51 -11 -70 -14 -19 -4 -107 -24 -195 -46
-88 -22 -169 -43 -181 -45 -99 -22 -520 -149 -684 -207 -47 -16 -100 -34 -119
-40 -114 -34 -792 -303 -826 -327 -5 -4 -26 -14 -45 -21 -112 -43 -643 -314
-875 -447 -304 -175 -866 -543 -1010 -660 -5 -5 -26 -19 -45 -33 -34 -23 -97
-72 -245 -190 -38 -30 -74 -58 -80 -62 -68 -50 -318 -265 -490 -421 -105 -96
-511 -500 -605 -602 -57 -62 -172 -191 -210 -235 -12 -14 -41 -47 -65 -75 -35
-40 -138 -165 -273 -330 -44 -54 -266 -351 -321 -430 -465 -664 -814 -1298
-1141 -2070 -151 -357 -354 -966 -446 -1335 -2 -8 -13 -49 -24 -90 -11 -41
-22 -84 -24 -95 -3 -11 -10 -42 -16 -70 -6 -27 -13 -57 -15 -65 -2 -8 -9 -37
-15 -65 -6 -27 -14 -61 -16 -75 -3 -13 -12 -56 -20 -95 -9 -38 -18 -81 -20
-95 -2 -14 -7 -36 -9 -50 -7 -31 -8 -39 -39 -225 -14 -82 -28 -168 -31 -190
-3 -22 -7 -53 -10 -70 -18 -116 -25 -172 -30 -235 -3 -30 -7 -66 -10 -80 -2
-14 -7 -54 -10 -90 -3 -36 -8 -83 -10 -105 -2 -22 -7 -78 -10 -125 -4 -47 -8
-101 -10 -120 -31 -319 -26 -1187 10 -1567 8 -82 14 -152 20 -218 6 -62 22
-207 30 -260 2 -16 9 -68 15 -115 6 -47 17 -123 25 -170 8 -47 17 -105 20
-130 3 -25 8 -52 10 -60 2 -8 7 -28 9 -45 29 -167 102 -513 125 -592 5 -18 8
-33 6 -33 -3 0 0 -11 5 -25 5 -14 12 -37 14 -50 8 -45 115 -429 145 -520 16
-49 34 -110 41 -135 19 -69 164 -476 235 -655 181 -458 464 -1047 657 -1363
21 -34 38 -65 38 -67 0 -20 324 -528 463 -725 206 -293 569 -756 702 -896 5
-6 33 -37 60 -69 92 -107 208 -229 415 -435 222 -223 345 -338 520 -490 35
-30 68 -60 74 -65 17 -16 234 -195 316 -261 101 -81 358 -274 365 -274 3 0 16
-9 28 -21 44 -42 599 -405 762 -499 17 -9 55 -32 85 -50 240 -144 722 -389
1025 -523 209 -92 554 -231 625 -252 14 -4 39 -13 55 -20 17 -7 59 -23 95 -35
36 -12 72 -25 80 -28 8 -3 17 -6 20 -7 3 0 73 -22 155 -48 83 -26 173 -54 200
-62 28 -9 86 -26 130 -40 44 -13 118 -34 165 -45 47 -12 101 -26 120 -31 19
-5 44 -12 55 -14 37 -9 60 -14 125 -30 65 -16 364 -80 410 -89 14 -2 63 -11
110 -20 47 -8 99 -18 116 -21 17 -2 85 -14 150 -25 66 -11 137 -22 159 -25 22
-2 58 -7 80 -10 334 -43 359 -46 555 -60 58 -4 121 -9 140 -11 303 -30 1145
-25 1545 10 28 3 86 8 130 11 44 4 91 8 105 10 14 2 43 6 65 9 22 3 63 8 90
11 28 3 86 10 130 16 44 6 93 13 108 15 73 9 290 45 427 70 14 2 40 7 59 10
149 25 544 116 761 175 80 22 152 42 160 44 103 24 506 154 715 230 1028 374
2026 930 2895 1614 81 64 171 136 201 161 65 55 278 239 300 260 8 8 60 55
115 105 54 49 187 177 295 285 182 181 258 260 399 416 57 63 70 78 160 184
30 35 61 71 68 79 8 8 39 46 70 85 31 39 59 73 62 76 3 3 30 37 60 75 30 39
57 72 60 75 3 3 25 32 49 65 25 33 47 62 51 65 8 7 224 307 275 384 155 229
378 586 475 761 309 555 559 1101 735 1605 31 91 61 174 66 185 10 22 115 349
130 405 5 19 11 42 14 50 73 261 120 441 150 580 2 8 9 38 15 65 6 28 13 57
15 65 5 23 63 322 68 350 7 35 16 91 21 120 2 14 7 41 10 60 3 19 8 53 11 75
3 22 7 47 10 55 2 8 6 40 10 71 3 31 7 66 9 76 5 23 17 116 21 153 3 36 15
139 20 180 2 19 7 64 10 100 2 36 7 92 10 125 21 229 30 486 30 840 0 308 -6
532 -19 715 -11 150 -17 220 -22 270 -4 30 -8 66 -9 80 -6 63 -19 185 -20 190
-1 3 -5 34 -9 70 -4 36 -11 90 -16 120 -5 30 -12 77 -15 104 -3 27 -7 51 -9
55 -2 3 -6 33 -10 66 -3 33 -10 75 -15 93 -6 18 -10 36 -10 40 0 7 -14 104
-16 112 -1 3 -5 23 -9 45 -4 22 -12 60 -17 85 -5 25 -11 54 -13 65 -35 173
-148 642 -176 730 -6 17 -23 75 -39 130 -101 347 -278 846 -387 1091 -7 16
-29 66 -47 110 -19 43 -47 106 -62 139 -14 33 -33 76 -42 95 -48 109 -274 550
-358 700 -408 731 -878 1381 -1435 1990 -199 217 -547 561 -754 745 -44 39
-84 75 -90 80 -124 115 -566 462 -811 637 -99 71 -477 322 -550 365 -11 7 -47
29 -80 49 -279 172 -717 406 -1015 543 -52 24 -122 56 -155 71 -102 47 -299
129 -420 175 -426 160 -675 246 -860 296 -22 6 -51 15 -65 20 -122 42 -680
178 -835 205 -16 2 -39 8 -50 11 -11 3 -29 7 -40 8 -11 2 -81 15 -155 29 -165
31 -185 35 -305 51 -22 3 -51 7 -65 10 -14 3 -45 7 -70 10 -25 3 -62 7 -82 10
-75 10 -114 14 -168 20 -30 3 -66 7 -80 10 -14 2 -63 7 -110 11 -47 3 -92 7
-100 9 -9 2 -76 6 -150 10 -74 4 -153 9 -175 12 -51 4 -912 13 -917 8z"/>
</g>
</svg>
