<svg id="Weather_Sun" data-name="Weather, Sun" xmlns="http://www.w3.org/2000/svg" width="180.982" height="180.983" viewBox="0 0 180.982 180.983">
  <path id="Tracciato_3" data-name="Tracciato 3" d="M97.491,150.721a53.23,53.23,0,1,1,53.23-53.23A53.23,53.23,0,0,1,97.491,150.721Zm0-95.814a42.584,42.584,0,1,0,42.584,42.584A42.584,42.584,0,0,0,97.491,54.907ZM33.615,97.491a5.323,5.323,0,0,0-5.323-5.323H12.323a5.323,5.323,0,1,0,0,10.646H28.292A5.323,5.323,0,0,0,33.615,97.491Zm154.367,0a5.323,5.323,0,0,0-5.323-5.323H166.69a5.323,5.323,0,1,0,0,10.646H182.66A5.323,5.323,0,0,0,187.983,97.491Zm-85.168-69.2V12.323a5.323,5.323,0,1,0-10.646,0V28.292a5.323,5.323,0,1,0,10.646,0Zm0,154.367V166.691a5.323,5.323,0,1,0-10.646,0V182.66a5.323,5.323,0,1,0,10.646,0ZM150.189,52.3l11.178-11.285a5.323,5.323,0,0,0-7.4-7.4L142.684,44.793a5.307,5.307,0,1,0,7.505,7.505ZM41.014,161.367,52.3,150.083a5.323,5.323,0,0,0-7.505-7.505L33.615,153.969a5.27,5.27,0,1,0,7.505,7.4Zm120.353,0a5.323,5.323,0,0,0,0-7.505l-11.178-11.178a5.323,5.323,0,0,0-7.505,7.505l11.285,11.178A5.323,5.323,0,0,0,161.367,161.367ZM52.3,52.3a5.323,5.323,0,0,0,0-7.505L41.014,33.615a5.323,5.323,0,0,0-7.4,7.4L44.9,52.3a5.082,5.082,0,0,0,7.4,0Z" transform="translate(-7 -7)" fill="#060606"/>
</svg>
