<svg width="60" height="40" viewBox="0 0 60 40" fill="none" xmlns="http://www.w3.org/2000/svg">
<g clip-path="url(#clip0_2978_2196)">
<rect width="60" height="40" fill="white"/>
<path d="M39.2234 26.1362L27.0156 5.62731L35.7857 0.757812L50.966 26.1362H39.2234Z" fill="black"/>
<path d="M6.70703 23.2627L15.4771 18.3604L20.1174 26.1362H8.40886L6.70703 23.2627Z" fill="black"/>
<path d="M23.918 39.2199H26.414V29.459H23.918V39.2199Z" fill="black"/>
<path d="M55.1976 39.4503C52.4066 39.4503 50.7275 38.0574 50.6367 36.0943H53.2689C53.2689 36.7084 53.666 37.6078 55.3678 37.6407C56.5023 37.6407 57.0356 36.9936 57.0356 36.511C56.9675 35.7433 55.9691 35.6775 54.9026 35.513C53.8362 35.3485 52.9285 35.1621 52.2705 34.833C51.4309 34.4163 50.8636 33.517 50.8636 32.486C50.8636 30.7422 52.4293 29.3604 55.0388 29.3604C57.5688 29.3604 59.1685 30.6435 59.3387 32.5518H56.7973C56.7746 32.0364 56.6725 31.2248 55.1749 31.2248C54.1652 31.2248 53.4958 31.4222 53.4391 32.1022C53.4391 33.1002 55.538 33.0344 57.1717 33.4511C58.7374 33.835 59.7358 34.7782 59.7358 36.0943C59.7358 38.5181 57.705 39.4503 55.1976 39.4503Z" fill="black"/>
<path d="M16.9844 14.5545L25.7544 9.66309L35.591 26.136H26.4125V28.5488H23.9165V26.125L16.9844 14.5545Z" fill="black"/>
<path d="M17.2096 39.4501C14.3052 39.4501 11.9453 37.1579 11.9453 34.3832C11.9453 31.5755 14.3052 29.3601 17.2096 29.3601C18.3101 29.3601 19.3085 29.6453 20.1821 30.2265V26.1357H22.6782V39.2197H20.1821V38.5727C19.3085 39.121 18.3101 39.4501 17.2096 39.4501ZM14.3392 34.3832C14.3392 35.8966 15.678 37.1579 17.2777 37.1579C18.8434 37.1579 20.1821 35.8966 20.1821 34.3832C20.1821 32.8697 18.8434 31.5755 17.2777 31.5755C15.678 31.5755 14.3392 32.8697 14.3392 34.3832Z" fill="black"/>
<path d="M35.6587 26.1357H38.1207V39.2197H35.6587V38.5727C34.8191 39.121 33.7867 39.4501 32.6521 39.4501C29.7817 39.4501 27.4219 37.1579 27.4219 34.3832C27.4219 31.5755 29.7817 29.3601 32.6521 29.3601C33.7867 29.3601 34.7851 29.6453 35.6587 30.2265V26.1357ZM29.8498 34.3832C29.8498 35.8966 31.1886 37.1579 32.7202 37.1579C34.3199 37.1579 35.6587 35.8966 35.6587 34.3832C35.6587 32.8697 34.3199 31.5755 32.7202 31.5755C31.1886 31.5755 29.8498 32.8697 29.8498 34.3832Z" fill="black"/>
<path d="M44.1912 39.4503C41.3321 39.4503 38.9609 37.1581 38.9609 34.3834C38.9609 31.5757 41.3321 29.3604 44.1912 29.3604C45.2917 29.3604 46.3242 29.6455 47.1637 30.2268V29.4481H49.6597V39.22H47.1637V38.5729C46.3242 39.1213 45.3258 39.4503 44.1912 39.4503ZM41.3889 34.3834C41.3889 35.8969 42.7276 37.1581 44.2933 37.1581C45.859 37.1581 47.1637 35.8969 47.1637 34.3834C47.1637 32.8699 45.859 31.5757 44.2933 31.5757C42.7276 31.5757 41.3889 32.8699 41.3889 34.3834Z" fill="black"/>
<path d="M2.76853 34.3834C2.76853 35.8969 4.10729 37.1581 5.67297 37.1581C7.27269 37.1581 8.61145 35.8969 8.61145 34.3834C8.61145 32.8699 7.27269 31.5757 5.67297 31.5757C4.10729 31.5757 2.76853 32.8699 2.76853 34.3834ZM5.6049 39.4503C2.73449 39.4503 0.363281 37.1581 0.363281 34.3834C0.363281 31.5757 2.73449 29.3604 5.6049 29.3604C6.70541 29.3604 7.73785 29.6455 8.61145 30.2268V29.4481H11.0734V39.22H8.61145V38.5729C7.77189 39.1213 6.73945 39.4503 5.6049 39.4503Z" fill="black"/>
</g>
<defs>
<clipPath id="clip0_2978_2196">
<rect width="60" height="40" fill="white"/>
</clipPath>
</defs>
</svg>
