<svg width="68" height="49" viewBox="0 0 68 49" fill="none" xmlns="http://www.w3.org/2000/svg">
<rect width="68" height="49" fill="white"/>
<g clip-path="url(#clip0_3097_2267)">
<path d="M43.0997 30.6362L31.0547 10.1273L39.7078 5.25781L54.6857 30.6362H43.0997Z" fill="black"/>
<path d="M11.0156 27.7637L19.6688 22.8613L24.2472 30.6371H12.6948L11.0156 27.7637Z" fill="black"/>
<path d="M27.9961 43.7199H30.4588V33.959H27.9961V43.7199Z" fill="black"/>
<path d="M58.8595 43.9513C56.1057 43.9513 54.4489 42.5584 54.3594 40.5953H56.9564C56.9564 41.2094 57.3482 42.1087 59.0274 42.1416C60.1468 42.1416 60.6729 41.4946 60.6729 41.012C60.6058 40.2443 59.6207 40.1785 58.5684 40.014C57.5162 39.8495 56.6206 39.663 55.9713 39.334C55.143 38.9172 54.5833 38.0179 54.5833 36.987C54.5833 35.2432 56.1281 33.8613 58.7027 33.8613C61.199 33.8613 62.7774 35.1445 62.9454 37.0528H60.4378C60.4155 36.5373 60.3147 35.7258 58.8371 35.7258C57.8408 35.7258 57.1803 35.9232 57.1243 36.6032C57.1243 37.6012 59.1953 37.5354 60.8072 37.9521C62.352 38.336 63.3371 39.2792 63.3371 40.5953C63.3371 43.019 61.3334 43.9513 58.8595 43.9513Z" fill="black"/>
<path d="M21.1562 19.0555L29.8094 14.1641L39.5148 30.637H30.4586V33.0498H27.9959V30.626L21.1562 19.0555Z" fill="black"/>
<path d="M21.3816 43.951C18.5159 43.951 16.1875 41.6589 16.1875 38.8841C16.1875 36.0765 18.5159 33.8611 21.3816 33.8611C22.4675 33.8611 23.4525 34.1463 24.3145 34.7275V30.6367H26.7772V43.7207H24.3145V43.0737C23.4525 43.622 22.4675 43.951 21.3816 43.951ZM18.5495 38.8841C18.5495 40.3976 19.8704 41.6589 21.4488 41.6589C22.9936 41.6589 24.3145 40.3976 24.3145 38.8841C24.3145 37.3706 22.9936 36.0765 21.4488 36.0765C19.8704 36.0765 18.5495 37.3706 18.5495 38.8841Z" fill="black"/>
<path d="M39.584 30.6367H42.0132V43.7207H39.584V43.0737C38.7557 43.622 37.737 43.951 36.6176 43.951C33.7854 43.951 31.457 41.6589 31.457 38.8841C31.457 36.0765 33.7854 33.8611 36.6176 33.8611C37.737 33.8611 38.7221 34.1463 39.584 34.7275V30.6367ZM33.8526 38.8841C33.8526 40.3976 35.1735 41.6589 36.6847 41.6589C38.2631 41.6589 39.584 40.3976 39.584 38.8841C39.584 37.3706 38.2631 36.0765 36.6847 36.0765C35.1735 36.0765 33.8526 37.3706 33.8526 38.8841Z" fill="black"/>
<path d="M48.0004 43.9513C45.1794 43.9513 42.8398 41.6591 42.8398 38.8844C42.8398 36.0767 45.1794 33.8613 48.0004 33.8613C49.0862 33.8613 50.1049 34.1465 50.9333 34.7277V33.9491H53.396V43.7209H50.9333V43.0739C50.1049 43.6222 49.1198 43.9513 48.0004 43.9513ZM45.2354 38.8844C45.2354 40.3978 46.5563 41.6591 48.1011 41.6591C49.6459 41.6591 50.9333 40.3978 50.9333 38.8844C50.9333 37.3709 49.6459 36.0767 48.1011 36.0767C46.5563 36.0767 45.2354 37.3709 45.2354 38.8844Z" fill="black"/>
<path d="M7.13099 38.8844C7.13099 40.3978 8.45191 41.6591 9.99671 41.6591C11.5751 41.6591 12.896 40.3978 12.896 38.8844C12.896 37.3709 11.5751 36.0767 9.99671 36.0767C8.45191 36.0767 7.13099 37.3709 7.13099 38.8844ZM9.92954 43.9513C7.0974 43.9513 4.75781 41.6591 4.75781 38.8844C4.75781 36.0767 7.0974 33.8613 9.92954 33.8613C11.0154 33.8613 12.0341 34.1465 12.896 34.7277V33.9491H15.3252V43.7209H12.896V43.0739C12.0676 43.6222 11.049 43.9513 9.92954 43.9513Z" fill="black"/>
</g>
<defs>
<clipPath id="clip0_3097_2267">
<rect width="59.2" height="40" fill="white" transform="translate(4.39844 4.5)"/>
</clipPath>
</defs>
</svg>
