<svg width="603" height="110" viewBox="0 0 603 110" fill="none" xmlns="http://www.w3.org/2000/svg">
<path d="M553.13 17.7099C551.57 17.7099 546.932 17.71 541.543 24.2542C541.612 24.3369 541.682 24.4195 541.754 24.5049C543.138 22.8862 544.874 21.2301 546.738 20.0247C548.461 18.9154 550.458 18.174 552.111 17.9926C553.317 17.8593 557.304 17.9099 561.842 17.9099C561.866 17.9099 561.88 17.9205 561.89 17.9339L561.773 17.7366C561.765 17.7179 561.749 17.7099 561.73 17.7099H553.13Z" fill="url(#paint0_radial_3394_671)"/>
<path d="M521.522 17.71C521.506 17.71 521.487 17.7155 521.476 17.7341L504.596 46.9725L499.302 56.1407L498.689 57.2048L498.609 57.3408C498.604 57.3515 498.604 57.3701 498.614 57.3914L514.695 85.2432V85.1284C514.345 84.4884 514.095 83.995 513.962 83.6857C513.29 82.1629 512.908 80.0563 513.007 78.0082C513.279 72.616 516.146 67.2958 517.588 64.7997C520.97 58.9435 527.506 47.6178 527.506 47.6178C527.506 47.6178 534.045 36.292 537.426 30.4331C538.866 27.9397 542.043 22.7955 546.579 19.8647C548.299 18.7527 550.32 18.0328 551.968 17.8515C553.176 17.7155 557.187 17.71 561.731 17.71H521.522Z" fill="url(#paint1_radial_3394_671)"/>
<path d="M498.746 57.613C498.999 58.0557 499.25 58.4931 499.498 58.9197L498.746 57.613ZM579.634 65.7733C578.65 67.112 577.018 68.5014 575.194 69.4348C570.386 71.8962 564.348 72.0748 561.468 72.0748H541.625H521.784C518.904 72.0748 512.859 71.8962 508.058 69.4348C506.232 68.5014 504.6 67.112 503.616 65.7733C502.992 64.9226 501.391 62.1972 499.498 58.9197L503.533 65.912L518.717 92.2142C518.725 92.2275 518.744 92.2383 518.76 92.2383H564.492C564.506 92.2383 564.524 92.2249 564.532 92.2116L584.458 57.7011C582.261 61.5066 580.336 64.8213 579.634 65.7733Z" fill="url(#paint2_radial_3394_671)"/>
<path d="M551.967 17.8517C550.319 18.0331 548.297 18.753 546.577 19.865C544.679 21.0917 543.02 22.7051 541.625 24.3505C543.564 26.6359 544.988 28.98 545.825 30.4334C549.207 36.2923 555.748 47.6181 555.748 47.6181C555.748 47.6181 562.285 58.9438 565.669 64.8C567.106 67.2961 569.975 72.6163 570.242 78.0085C570.343 80.0565 569.957 82.1632 569.293 83.6859C568.826 84.75 566.973 87.9848 564.82 91.7129L584.643 57.3837C584.643 57.3837 584.645 57.3783 584.645 57.373V57.3517C584.645 57.3463 584.64 57.3383 584.64 57.3383L561.773 17.737C561.765 17.7183 561.748 17.7103 561.73 17.7103C557.186 17.7103 553.175 17.7157 551.967 17.8517Z" fill="url(#paint3_radial_3394_671)"/>
<path d="M38.0508 38.0068C26.7384 38.0068 17.7168 47.3192 17.7168 59.0076C17.7168 71.224 26.5838 79.675 37.5175 79.675C43.7764 79.675 48.6245 77.4322 52.318 73.2081L46.8511 67.6079C44.5897 70.0213 41.7443 71.3413 38.0508 71.3413C31.6426 71.3413 27.3171 65.9731 27.3171 58.8076C27.3171 51.8713 31.736 46.3405 37.9175 46.3405C41.163 46.3405 43.9204 47.5538 46.1845 49.7406L51.8513 43.8737C48.5312 40.2549 43.6324 38.0068 38.0508 38.0068ZM76.3855 38.0068C64.3958 38.0068 55.3848 47.3938 55.3848 59.0076C55.3848 70.7733 63.9024 79.675 76.1188 79.675C88.1086 79.675 97.1196 70.2906 97.1196 58.6742C97.1196 46.9111 88.5993 38.0068 76.3855 38.0068ZM106.853 38.6735L102.92 78.9416H111.253L113.12 57.2075C113.496 52.9834 113.52 48.6072 113.52 48.6072H113.72C113.72 48.6072 114.648 53.01 115.854 57.0075L122.654 78.9416H130.587L137.388 56.8075C138.593 52.962 139.521 48.6072 139.521 48.6072H139.654C139.654 48.6072 139.745 52.9647 140.121 57.3408L141.921 78.9416H150.788L146.855 38.6735H135.188L129.054 58.6076C128.075 61.8557 127.054 66.0078 127.054 66.0078C127.054 66.0078 125.979 61.861 124.921 58.5409L118.72 38.6735H106.853ZM162.989 38.6735L159.122 78.9416H167.455L169.255 57.2075C169.631 52.9834 169.722 48.6072 169.722 48.6072H169.855C169.855 48.6072 170.85 53.01 172.056 57.0075L178.856 78.9416H186.789L193.523 56.8075C194.731 52.962 195.656 48.6072 195.656 48.6072H195.79C195.79 48.6072 195.88 52.9647 196.256 57.3408L198.056 78.9416H206.99L203.057 38.6735H191.39L185.256 58.6076C184.275 61.8557 183.256 66.0078 183.256 66.0078C183.256 66.0078 182.179 61.861 181.123 58.5409L174.922 38.6735H162.989ZM216.59 38.6735V78.9416H242.791V71.208H225.391V62.4077H240.125V54.8741H225.391V46.3405H242.525V38.6735H216.59ZM253.125 38.6735V78.9416H261.925V64.2744H264.659L273.259 78.9416H283.726L273.792 62.741C278.995 60.781 281.926 56.7435 281.926 51.5406C281.926 43.3964 277.334 38.6735 265.192 38.6735H253.125ZM289.26 38.6735V46.3405H305.527L288.86 72.2747V78.9416H316.927V71.208H299.86L316.527 45.2738V38.6735H289.26ZM325.994 38.6735V78.9416H341.395C348.56 78.9416 356.529 75.7095 356.529 67.3412C356.529 62.1383 353.206 58.6156 347.928 57.9409V57.8742C352.075 56.5888 354.662 53.4554 354.662 49.0072C354.662 40.2576 346.947 38.6735 339.928 38.6735H325.994ZM373.796 38.6735L359.462 78.9416H368.262L371.062 70.7413H386.73L389.53 78.9416H398.997L384.663 38.6735H373.796ZM404.464 38.6735V78.9416H412.597V59.8076C412.597 56.1861 412.331 52.474 412.331 52.474C412.331 52.474 414.221 55.7088 416.331 58.8742L429.998 78.9416H437.798V38.6735H429.598V56.9408C429.598 60.5623 429.865 64.2078 429.865 64.2078C429.865 64.2078 427.979 60.9756 425.864 57.8075L412.797 38.6735H404.464ZM447.465 38.6735V78.9416H456.199V60.0743L469.066 78.9416H479.866L465.066 57.3408L478.466 38.6735H468.333L456.199 56.7408V38.6735H447.465ZM76.2522 46.2071C83.1884 46.2071 87.6526 51.7113 87.6526 58.8742C87.6526 65.6611 83.3378 71.4747 76.2522 71.4747C69.3133 71.4747 64.8518 65.9731 64.8518 58.8076C64.8518 52.0207 69.1639 46.2071 76.2522 46.2071ZM261.925 46.2071H265.525C270.2 46.2071 272.926 47.6205 272.926 51.5406C272.926 55.3114 270.427 56.9408 265.525 56.9408H261.925V46.2071ZM334.728 46.2071H339.795C342.584 46.2071 345.395 47.0872 345.395 50.4073C345.395 53.6474 342.989 54.9408 340.195 54.9408H334.728V46.2071ZM378.929 46.8071C378.929 46.8071 379.679 49.5326 380.663 52.474L384.196 63.141H373.663L377.196 52.5407C378.177 49.5246 378.929 46.8071 378.929 46.8071ZM334.728 62.341H341.195C345.112 62.341 347.662 63.5731 347.662 66.7412C347.662 69.8346 345.643 71.408 341.195 71.408H334.728V62.341Z" fill="black"/>
<defs>
<radialGradient id="paint0_radial_3394_671" cx="0" cy="0" r="1" gradientUnits="userSpaceOnUse" gradientTransform="translate(569.293 83.6841) scale(66.4064 66.4078)">
<stop stop-color="#FEDF33"/>
<stop offset="0.440002" stop-color="#FBB809"/>
<stop offset="0.899994" stop-color="#EE960D"/>
<stop offset="1" stop-color="#E17A10"/>
</radialGradient>
<radialGradient id="paint1_radial_3394_671" cx="0" cy="0" r="1" gradientUnits="userSpaceOnUse" gradientTransform="translate(551.953 17.7085) scale(66.4557 66.4558)">
<stop stop-color="#FEDF33"/>
<stop offset="0.440002" stop-color="#FBB809"/>
<stop offset="0.899994" stop-color="#EE960D"/>
<stop offset="1" stop-color="#E17A10"/>
</radialGradient>
<radialGradient id="paint2_radial_3394_671" cx="0" cy="0" r="1" gradientUnits="userSpaceOnUse" gradientTransform="translate(503.532 65.9116) scale(66.4293 66.4294)">
<stop stop-color="#FEDF33"/>
<stop offset="0.440002" stop-color="#FBB809"/>
<stop offset="0.899994" stop-color="#EE960D"/>
<stop offset="1" stop-color="#E17A10"/>
</radialGradient>
<radialGradient id="paint3_radial_3394_671" cx="0" cy="0" r="1" gradientUnits="userSpaceOnUse" gradientTransform="translate(569.248 83.8986) scale(66.6154 66.6153)">
<stop stop-color="#FEDF33"/>
<stop offset="0.440002" stop-color="#FBB809"/>
<stop offset="0.899994" stop-color="#EE960D"/>
<stop offset="1" stop-color="#D87301"/>
</radialGradient>
</defs>
</svg>
