<?xml version="1.0" encoding="UTF-8" standalone="no"?>
<!-- Created with Inkscape (http://www.inkscape.org/) -->
<svg
   xmlns:svg="http://www.w3.org/2000/svg"
   xmlns="http://www.w3.org/2000/svg"
   version="1.0"
   width="1034.2858"
   height="285.71429"
   id="svg3624">
  <defs
     id="defs3626" />
  <g
     transform="translate(474.28571,-255.21933)"
     id="layer1">
    <path
       d="M -140.27413,269.0187 L -431.01692,269.0187 C -450.99122,269.0187 -467.52964,284.81353 -467.52964,305.22373 L -467.52964,486.78733 C -467.52964,507.22317 -450.99122,523.40261 -431.01692,523.40261 L -140.27413,523.40261 C -120.6588,523.40261 -104.12038,507.22317 -104.12038,486.78733 L -104.12038,305.22373 C -104.12038,284.81353 -120.6588,269.0187 -140.27413,269.0187"
       id="path375"
       style="fill:#ed1c24;fill-opacity:1;fill-rule:nonzero;stroke:none" />
    <path
       d="M -130.65877,486.78733 C -130.65877,492.58219 -134.50491,497.19756 -140.27413,497.19756 L -431.01692,497.19756 C -436.76049,497.19756 -440.99125,492.58219 -440.99125,486.78733 L -440.99125,305.22373 C -440.99125,299.45451 -436.76049,294.83914 -431.01692,294.83914 L -140.27413,294.83914 C -134.50491,294.83914 -130.65877,299.45451 -130.65877,305.22373 L -130.65877,486.78733"
       id="path379"
       style="fill:#ffffff;fill-opacity:1;fill-rule:nonzero;stroke:none" />
    <path
       d="M -191.81245,430.50584 C -191.81245,413.55717 -202.58165,409.68539 -218.3252,409.68539 L -232.96618,409.68539 L -232.96618,452.48014 L -218.73545,452.48014 C -204.47908,452.48014 -191.81245,447.86477 -191.81245,430.50584 z M -232.96618,378.86496 L -219.09443,378.86496 C -206.01754,378.86496 -196.42782,373.09575 -196.42782,358.81373 C -196.42782,342.99327 -208.73548,338.76251 -221.81237,338.76251 L -232.96618,338.76251 L -232.96618,378.86496 z M -207.96625,479.45443 L -272.55582,479.45443 L -272.55582,312.94207 L -204.8637,312.94207 C -172.94071,312.94207 -155.6587,326.04459 -155.6587,357.27528 C -155.6587,373.48036 -169.1202,385.01879 -183.73555,392.3521 C -163.32535,398.12132 -149.50487,410.48026 -149.50487,431.27507 C -149.50487,465.19806 -177.96633,479.45443 -207.96625,479.45443"
       id="path383"
       style="fill:#ed1c24;fill-opacity:1;fill-rule:nonzero;stroke:none" />
    <path
       d="M -329.83791,398.89055 C -329.83791,365.35218 -333.32508,339.17276 -369.45319,339.17276 L -377.55573,339.17276 L -377.55573,452.48014 L -363.325,452.48014 C -342.17121,452.48014 -329.83791,435.53147 -329.83791,398.89055 z M -356.40194,479.45443 L -417.52998,479.45443 L -417.52998,312.94207 L -356.40194,312.94207 C -313.32514,312.94207 -290.27392,339.91635 -290.27392,395.42902 C -290.27392,443.63401 -305.63285,479.06981 -356.40194,479.45443"
       id="path387"
       style="fill:#ed1c24;fill-opacity:1;fill-rule:nonzero;stroke:none" />
    <path
       d="M 357.49352,338.30056 C 357.49352,338.30056 357.49352,390.27478 357.49352,393.06964 L 307.16033,393.06964 C 307.16033,390.27478 307.16033,338.30056 307.16033,338.30056 L 270.77581,338.30056 L 270.77581,479.47966 L 307.16033,479.47966 C 307.16033,479.47966 307.16033,424.06955 307.16033,421.27469 L 357.49352,421.27469 C 357.49352,424.06955 357.49352,479.47966 357.49352,479.47966 L 393.90368,479.47966 L 393.90368,338.30056 L 357.49352,338.30056"
       id="path391"
       style="fill:#231f20;fill-opacity:1;fill-rule:nonzero;stroke:none" />
    <path
       d="M 513.7751,338.30056 C 513.7751,338.30056 513.7751,407.65934 513.7751,415.47983 C 508.9546,409.09524 455.13428,338.30056 455.13428,338.30056 L 424.57026,338.30056 L 424.57026,479.47966 L 455.49325,479.47966 C 455.49325,479.47966 455.49325,401.99269 455.49325,394.12092 C 460.33939,400.50552 520.3905,479.47966 520.3905,479.47966 L 544.6725,479.47966 L 544.6725,338.30056 L 513.7751,338.30056"
       id="path395"
       style="fill:#231f20;fill-opacity:1;fill-rule:nonzero;stroke:none" />
    <path
       d="M 23.13568,417.09521 C 25.67413,417.09521 44.95613,417.09521 44.95613,417.09521 C 58.93045,417.09521 64.62274,422.01828 64.62274,434.06953 C 64.62274,447.40282 58.59712,452.35153 42.4946,452.35153 C 42.4946,452.35153 25.62285,452.35153 23.13568,452.35153 L 23.13568,417.09521 z M 42.67408,393.6081 C 42.67408,393.6081 25.62285,393.6081 23.13568,393.6081 L 23.13568,365.37741 C 25.64849,365.37741 43.44331,365.37741 43.44331,365.37741 C 53.62277,365.37741 57.95609,369.53124 57.95609,379.32609 C 57.95609,389.32606 53.392,393.6081 42.67408,393.6081 z M 72.95605,404.35166 C 87.31499,398.35168 93.23805,390.19785 93.23805,375.12097 C 93.23805,351.01847 76.72527,338.30056 45.52023,338.30056 L -13.24884,338.30056 L -13.24884,479.47966 L 44.39203,479.47966 C 81.44321,479.47966 101.00726,465.40277 101.00726,438.8131 C 101.00726,419.8388 92.03292,409.24908 72.95605,404.35166"
       id="path399"
       style="fill:#231f20;fill-opacity:1;fill-rule:nonzero;stroke:none" />
    <path
       d="M 162.72503,429.01805 L 180.1096,380.76178 L 197.59673,429.01805 L 162.72503,429.01805 z M 215.80181,479.47945 L 252.87863,479.47945 L 198.75058,338.30036 L 165.21221,338.30036 L 110.28928,479.47945 L 144.59688,479.47945 L 153.80198,453.78722 L 206.54543,453.78722 L 215.80181,479.47945"
       id="path403"
       style="fill:#231f20;fill-opacity:1;fill-rule:nonzero;stroke:none" />
  </g>
</svg>
