<svg width="40" height="40" viewBox="0 0 40 40" fill="none" xmlns="http://www.w3.org/2000/svg">
<rect width="40" height="40" fill="white"/>
<path d="M8.86704 18.6351C8.74666 18.6345 8.63565 18.5686 8.57546 18.462L4.84135 11.6385C4.80373 11.5199 4.67204 11.5616 4.67204 11.677V18.2954C4.67206 18.3866 4.63619 18.474 4.5725 18.5379C4.50881 18.6018 4.42266 18.6368 4.33343 18.6351H2.33626C2.24787 18.636 2.16284 18.6005 2.10033 18.5366C2.03782 18.4727 2.00308 18.3857 2.00393 18.2954V5.34065C2.00308 5.25029 2.03782 5.16337 2.10033 5.09947C2.16284 5.03557 2.24787 5.00005 2.33626 5.00092H4.64696C4.86679 4.98699 5.06591 5.13296 5.12352 5.35027L8.50962 12.584C8.54724 12.6994 8.67265 12.6609 8.67265 12.5456V5.34065C8.67181 5.25029 8.70655 5.16337 8.76906 5.09947C8.83157 5.03557 8.91659 5.00005 9.00499 5.00092H11.0053C11.094 5.00006 11.1793 5.03548 11.2423 5.09928C11.3053 5.16309 11.3408 5.24999 11.3408 5.34065V18.2954C11.3408 18.386 11.3053 18.4729 11.2423 18.5367C11.1793 18.6006 11.094 18.636 11.0053 18.6351H8.86704ZM26.6817 18.6351C25.443 18.636 24.2547 18.1335 23.3786 17.2385C22.5024 16.3434 22.0101 15.1291 22.0101 13.8628V5.34065C22.0101 5.24999 22.0455 5.16309 22.1086 5.09928C22.1716 5.03548 22.2569 5.00006 22.3456 5.00092H24.3647C24.4558 4.99558 24.5449 5.02912 24.6109 5.09352C24.6769 5.15792 24.7137 5.24741 24.7127 5.34065V13.8724C24.7127 14.4128 24.9229 14.9309 25.2969 15.3127C25.671 15.6944 26.1782 15.9085 26.7067 15.9076C27.8063 15.9076 28.6976 14.9964 28.6976 13.8724V5.34065C28.6968 5.25029 28.7315 5.16337 28.7941 5.09947C28.8566 5.03557 28.9416 5.00005 29.03 5.00092H31.0303C31.119 5.00006 31.2043 5.03548 31.2673 5.09928C31.3303 5.16309 31.3658 5.24999 31.3658 5.34065V13.8628C31.3658 15.1313 30.8718 16.3476 29.9929 17.243C29.114 18.1385 27.9225 18.6394 26.6817 18.6351ZM8.76044 30.7982V29.8848C8.76044 29.6954 8.61024 29.5418 8.42497 29.5418H6.36509C6.18155 29.5418 6.03275 29.3897 6.03275 29.2021V27.1925C6.03274 27.0044 6.18104 26.8514 6.36509 26.8496H10.9959C11.1812 26.8496 11.3314 27.0031 11.3314 27.1925V30.7982C11.3314 33.0994 9.18057 35 6.60964 35C4.03872 35 2.40524 33.061 2.13874 30.7597C1.95375 29.046 1.95375 27.3166 2.13874 25.6029C2.40211 23.3016 4.01991 21.3626 6.60651 21.3626C8.95796 21.3626 10.9332 22.8722 11.2749 25.0612C11.2916 25.1594 11.2649 25.2601 11.202 25.3362C11.139 25.4123 11.0463 25.4559 10.9489 25.4554H8.92347C8.78157 25.4516 8.65678 25.3584 8.60995 25.2215C8.32884 24.4786 7.62054 23.9971 6.84165 24.0196C5.69728 24.0196 4.89151 24.7599 4.79745 25.6029C4.61246 27.3166 4.61246 29.046 4.79745 30.7597C4.89151 31.6027 5.69728 32.2469 6.84165 32.2469C7.98603 32.2469 8.76044 31.6604 8.76044 30.7982ZM24.6375 31.9712C24.6375 32.1606 24.7877 32.3142 24.9729 32.3142H28.3465C28.4352 32.3133 28.5205 32.3487 28.5835 32.4125C28.6465 32.4764 28.682 32.5633 28.682 32.6539V34.6571C28.682 34.8465 28.5318 35 28.3465 35H22.3456C22.1603 35 22.0101 34.8465 22.0101 34.6571V21.7055C22.0101 21.5161 22.1603 21.3626 22.3456 21.3626H24.3051C24.3938 21.3626 24.4788 21.3988 24.5412 21.4632C24.6037 21.5276 24.6383 21.6149 24.6375 21.7055V31.9712ZM37.8495 25.2759C37.8495 26.1221 37.3291 27.5195 36.7867 28.0643C36.6738 28.1797 36.6738 28.1733 36.7867 28.2694C37.5102 28.9333 37.9465 29.8635 38 30.8559C38 33.3686 36.4606 35 34.153 35H30.3562C30.1709 35 30.0207 34.8465 30.0207 34.6571V21.7055C30.0207 21.5161 30.1709 21.3626 30.3562 21.3626H34.1593C35.1593 21.3717 36.1138 21.7915 36.8079 22.5275C37.502 23.2635 37.8773 24.254 37.8495 25.2759ZM35.3726 25.4554C35.3726 24.7014 34.7747 24.0901 34.037 24.0901H33.0024C32.9137 24.0901 32.8287 24.1263 32.7663 24.1907C32.7038 24.2551 32.6692 24.3424 32.67 24.433V26.481C32.67 26.6687 32.8188 26.8208 33.0024 26.8208H34.037C34.7747 26.8208 35.3726 26.2095 35.3726 25.4554ZM34.0245 29.5258H33.0024C32.9137 29.5258 32.8287 29.562 32.7663 29.6264C32.7038 29.6908 32.6692 29.7781 32.67 29.8687V31.9104C32.6692 32.001 32.7038 32.0882 32.7663 32.1527C32.8287 32.2171 32.9137 32.2533 33.0024 32.2533H34.0245C34.7609 32.2604 35.364 31.6568 35.3726 30.904C35.3735 30.5391 35.2314 30.189 34.9781 29.9319C34.7248 29.6748 34.3814 29.532 34.0245 29.5354V29.5258ZM15.3414 15.5679C15.3414 15.6586 15.3768 15.7455 15.4398 15.8093C15.5028 15.8731 15.5882 15.9085 15.6769 15.9076H20.3453C20.5293 15.9094 20.6776 16.0624 20.6776 16.2506V18.2954C20.6776 18.3855 20.6426 18.4719 20.5803 18.5356C20.518 18.5993 20.4334 18.6351 20.3453 18.6351H13.0087C12.9201 18.636 12.8347 18.6006 12.7717 18.5367C12.7087 18.4729 12.6733 18.386 12.6733 18.2954V5.34065C12.6733 5.24999 12.7087 5.16309 12.7717 5.09928C12.8347 5.03548 12.9201 5.00006 13.0087 5.00092H20.3453C20.5288 5.00092 20.6776 5.15302 20.6776 5.34065V7.38546C20.6776 7.57361 20.5293 7.72664 20.3453 7.7284H15.6769C15.5882 7.72754 15.5028 7.76296 15.4398 7.82676C15.3768 7.89057 15.3414 7.97747 15.3414 8.06813V10.1129C15.3414 10.3023 15.4916 10.4559 15.6769 10.4559H20.3453C20.5288 10.4559 20.6776 10.608 20.6776 10.7956V12.8404C20.6776 13.0286 20.5293 13.1816 20.3453 13.1834H15.6769C15.5882 13.1825 15.5028 13.2179 15.4398 13.2817C15.3768 13.3455 15.3414 13.4324 15.3414 13.5231V15.5679ZM15.3414 31.9296C15.3414 32.119 15.4916 32.2725 15.6769 32.2725H20.3453C20.5288 32.2725 20.6776 32.4246 20.6776 32.6123V34.6571C20.6776 34.8452 20.5293 34.9982 20.3453 35H13.0087C12.8235 35 12.6733 34.8465 12.6733 34.6571V21.7055C12.6733 21.5161 12.8235 21.3626 13.0087 21.3626H20.3453C20.5293 21.3644 20.6776 21.5174 20.6776 21.7055V23.7503C20.6776 23.8404 20.6426 23.9269 20.5803 23.9906C20.518 24.0543 20.4334 24.0901 20.3453 24.0901H15.6769C15.4916 24.0901 15.3414 24.2436 15.3414 24.433V26.4778C15.3414 26.5685 15.3768 26.6554 15.4398 26.7192C15.5028 26.783 15.5882 26.8184 15.6769 26.8176H20.3453C20.5281 26.8193 20.6759 26.9704 20.6776 27.1573V29.2053C20.6759 29.3922 20.5281 29.5433 20.3453 29.545H15.6769C15.4928 29.545 15.3431 29.6966 15.3414 29.8848V31.9296Z" fill="black"/>
</svg>
