<?xml version="1.0" encoding="UTF-8"?>
<!-- Created with Inkscape (http://www.inkscape.org/) -->
<svg width="978.46" height="180" version="1.1" viewBox="0 0 258.88 47.625" xmlns="http://www.w3.org/2000/svg">
<g transform="translate(226.83 29.401)"><g transform="matrix(6.5934 0 0 6.5934 1268.8 164.45)"><path d="m-221.33-26.967v-0.05292c0-0.68792-0.21166-1.27-0.635-1.6669-0.47625-0.44979-1.1906-0.68792-2.0373-0.68792h-2.831v7.1702h1.614v-2.3283h0.92604l1.3758 2.3283h1.8256l-1.5875-2.6458c0.60854-0.29104 1.3494-0.87312 1.3494-2.1167zm-1.614 0.02646c0 0.66146-0.44979 1.0583-1.1906 1.0583h-1.0848v-2.0902h1.0848c0.76729 0 1.1906 0.34396 1.1906 1.0319zm24.289-2.4606-2.6988 7.1967h1.614l0.55563-1.5346h2.5135l0.55562 1.5346h1.6669l-2.6988-7.1967zm1.4817 4.3127h-1.5346l0.76729-2.196zm7.4083-0.76729 2.1431-3.4925h-1.7727l-1.27 2.2754-1.2435-2.2754h-1.8521l2.1167 3.519-2.2225 3.6512h1.7727l1.3494-2.4077 1.3494 2.4077h1.8256zm-28.258 2.2754v-1.5346h2.884v-1.3758h-2.884v-1.4817h3.2544v-1.4023h-4.8419v7.1702h3.0162l0.74084-1.3758zm13.758-5.7944-1.614 2.3283-1.6404-2.3283h-0.0265l-1.6404 3.1221v4.0481h1.561v-4.445l1.6933 2.196v0.02646h0.0794l1.7198-2.2225v4.445h1.561v-7.1702z" stroke-width=".26458" fill="#dc1c2e"/><polygon transform="matrix(.26458 0 0 .26458 -226.83 -29.693)" points="59.2 1.2 44.9 28.3 52.3 28.3 66.6 1.2" fill="#003da5"/></g></g>
</svg>