<svg width="47" height="41" viewBox="0 0 47 41" fill="none" xmlns="http://www.w3.org/2000/svg">
<rect width="45.6784" height="39.9789" transform="translate(0.660156 0.509766)" fill="white"/>
<path d="M0.660156 20.4992V0.509766H46.3385V40.4887H0.660156V20.4992ZM18.6165 21.9738V11.9791H25.3265C31.4694 11.9791 32.0995 12.0447 33.0446 12.6345C35.0292 13.8798 36.0058 18.2709 35.3757 22.8586C34.6827 27.6758 33.2966 28.7899 28.3192 28.6261L25.3895 28.5278L25.295 20.9252L25.232 13.2899H19.8766V32.0341L27.3741 31.903L34.8402 31.8047L36.6673 30.8872C39.597 29.3798 40.8886 26.7582 41.2037 21.6461C41.3927 18.4347 40.9516 14.8301 40.1326 13.1588C39.4395 11.717 38.1794 10.4062 36.7303 9.58694C35.5017 8.86601 35.1552 8.86601 20.4436 8.7677L5.38551 8.66939V11.9791H13.2611V31.9686H18.6165V21.9738Z" fill="#87C968"/>
</svg>
