<svg width="124" height="40" viewBox="0 0 124 40" fill="none" xmlns="http://www.w3.org/2000/svg">
<rect width="124" height="40" fill="white"/>
<path d="M71.8581 29.3803C69.7474 28.3644 68.9599 26.005 69.9679 23.7767C70.787 21.9744 72.4881 21.1879 75.8904 21.024C77.4025 20.9585 78.6311 20.7619 78.6311 20.598C78.6311 19.3856 74.8193 18.894 72.3621 19.8116L71.0705 20.2703V16.4035L72.5826 16.1414C73.4017 16.0103 75.3548 15.8792 76.9299 15.912C79.2926 15.912 80.0487 16.0431 81.3088 16.7312C83.9235 18.0748 84.144 18.5991 84.2385 24.4321L84.333 29.4786H81.4978C78.6311 29.4786 78.6311 29.4786 78.6311 28.6266V27.8073L77.497 28.6921C76.1424 29.7735 73.4017 30.1012 71.8581 29.3803ZM77.8435 25.7101C78.2845 25.2841 78.6311 24.6287 78.6311 24.2355C78.6311 23.7111 78.4421 23.5801 77.5915 23.5801C75.6699 23.5801 74.3783 25.3496 75.7329 26.1689C76.5834 26.6932 77.0245 26.5949 77.8435 25.7101ZM51.5391 20.467V11.3898L58.0915 11.5209C65.4001 11.6519 66.4712 11.9141 67.6053 13.8147C68.8338 15.912 68.0778 18.6974 65.9986 19.8116L65.0221 20.3686L66.0616 20.893C67.6683 21.745 68.6448 23.449 68.4558 25.1202C68.2668 26.857 67.6053 27.9712 66.2507 28.7249C65.4001 29.2164 64.2345 29.3147 58.4066 29.4131L51.5391 29.5114V20.467ZM60.7692 25.5135C61.5883 25.0547 61.9348 24.5959 61.9348 23.8422C61.9348 22.7936 61.0213 22.2693 59.2256 22.2693H57.5245V23.8422C57.5245 24.727 57.619 25.5462 57.745 25.6445C58.06 26.005 60.0132 25.9067 60.7692 25.5135ZM61.0213 18.0092C61.7143 17.616 61.8403 16.0758 61.2418 15.4532C61.0213 15.2238 60.1077 15.06 59.1941 15.06H57.5245V18.3369H58.9736C59.7612 18.3369 60.6747 18.1731 61.0213 18.0092ZM85.9396 22.8591L86.0341 16.2069L88.9638 16.1086L91.8621 16.0103V16.8623C91.8621 17.8782 92.0196 17.8782 93.1537 16.8951C94.9178 15.3549 98.2255 15.5187 99.7691 17.2228C100.494 18.042 100.525 18.2386 100.62 23.7767L100.714 29.4786H94.4137L94.3192 24.8253C94.2247 20.4997 94.1932 20.1393 93.6262 20.0409C92.4606 19.7788 92.1771 20.8274 92.1771 25.2841V29.4786H85.8766L85.9396 22.8591ZM102.888 19.8116V10.1445H108.873V15.5515C108.873 18.5335 108.999 20.9585 109.125 20.9585C109.283 20.9585 110.133 19.8443 111.047 18.5008L112.685 16.0431H116.15C118.86 16.0431 119.553 16.1414 119.364 16.4691C119.238 16.6657 118.356 17.9109 117.442 19.1562C116.497 20.4342 115.646 21.6467 115.583 21.8433C115.489 22.0727 116.371 23.7767 117.505 25.6445C118.639 27.5124 119.584 29.1509 119.584 29.2492C119.584 29.3803 117.977 29.4786 116.056 29.4786H112.496L110.952 26.5293C110.102 24.8908 109.283 23.5801 109.125 23.5801C108.999 23.5801 108.873 24.9236 108.873 26.5293V29.4786H102.888V19.8116Z" fill="#003F2D"/>
<path d="M0 19.9894V0H45.6784V39.9789H0V19.9894ZM17.9563 21.4641V11.4694H24.6663C30.8093 11.4694 31.4393 11.5349 32.3844 12.1247C34.369 13.37 35.3456 17.7611 34.7156 22.3489C34.0225 27.166 32.6364 28.2802 27.6591 28.1163L24.7293 28.018L24.6348 20.4155L24.5718 12.7801H19.2164V31.5243L26.714 31.3933L34.18 31.295L36.0072 30.3774C38.9369 28.87 40.2285 26.2484 40.5435 21.1364C40.7325 17.925 40.2915 14.3203 39.4724 12.6491C38.7794 11.2072 37.5193 9.89641 36.0702 9.07718C34.8416 8.35624 34.4951 8.35624 19.7835 8.25794L4.72535 8.15963V11.4694H12.6009V31.4588H17.9563V21.4641Z" fill="#54B848"/>
</svg>
