<svg width="94" height="40" viewBox="0 0 94 40" fill="none" xmlns="http://www.w3.org/2000/svg">
<g clip-path="url(#clip0_2978_2207)">
<path d="M15.4343 29.328C15.4343 30.5579 14.9417 31.7375 14.0649 32.6072C13.1881 33.4769 11.999 33.9655 10.759 33.9655C9.51902 33.9655 8.32984 33.4769 7.45305 32.6072C6.57626 31.7375 6.08369 30.5579 6.08369 29.328V13.051H0.000504117V29.328C-0.0132574 30.7381 0.254856 32.1369 0.78935 33.4436C1.32384 34.7503 2.11412 35.939 3.1145 36.9409C4.11489 37.9429 5.30554 38.7382 6.61766 39.281C7.92978 39.8238 9.33733 40.1033 10.759 40.1033C12.1806 40.1033 13.5882 39.8238 14.9003 39.281C16.2124 38.7382 17.4031 37.9429 18.4035 36.9409C19.4039 35.939 20.1941 34.7503 20.7286 33.4436C21.2631 32.1369 21.5312 30.7381 21.5175 29.328V13.051H15.4343V29.328ZM79.8632 11.982C77.6568 11.9878 75.4829 12.5107 73.5189 13.508V0H67.4025V21.692L72.3424 23.402C72.9309 21.6939 74.0888 20.2359 75.6253 19.2685C77.1617 18.3012 78.9847 17.8824 80.7934 18.0812C82.6021 18.28 84.2884 19.0845 85.574 20.3621C86.8596 21.6396 87.6677 23.3137 87.8649 25.1082C88.062 26.9026 87.6365 28.7101 86.6585 30.2324C85.6805 31.7546 84.2085 32.9006 82.4854 33.4812C80.7624 34.0618 78.8912 34.0423 77.1808 33.426C75.4704 32.8096 74.0229 31.6333 73.0773 30.091L67.9428 33.371C69.243 35.4387 71.0652 37.1335 73.2289 38.2877C75.3926 39.4419 77.8228 40.0153 80.2787 39.9511C82.7346 39.8869 85.131 39.1874 87.2305 37.9218C89.33 36.6563 91.0597 34.8686 92.2483 32.7359C93.4369 30.6032 94.0431 28.1995 94.0069 25.7628C93.9707 23.3262 93.2933 20.9412 92.0419 18.8442C90.7905 16.7472 89.0084 15.0108 86.8722 13.8072C84.7361 12.6035 82.32 11.9744 79.8632 11.982Z" fill="#50EB5D"/>
<path d="M68.867 29.0592C69.3846 28.749 69.9833 28.5979 70.5874 28.6252C71.1915 28.6525 71.7739 28.8568 72.2609 29.2124C72.7479 29.568 73.1177 30.0588 73.3235 30.6229C73.5294 31.1869 73.5619 31.7988 73.4172 32.3812C73.2724 32.9636 72.9567 33.4903 72.5102 33.8948C72.0636 34.2993 71.5061 34.5633 70.9083 34.6536C70.3104 34.7438 69.699 34.6562 69.1514 34.4017C68.6038 34.1473 68.1445 33.7375 67.8316 33.2242C67.6239 32.8833 67.4858 32.5051 67.4254 32.1113C67.365 31.7175 67.3834 31.3157 67.4795 30.9289C67.5757 30.5422 67.7477 30.178 67.9858 29.8572C68.2238 29.5364 68.5233 29.2652 68.867 29.0592Z" fill="#2A7C32"/>
<path d="M51.3329 11.9444C48.8333 11.9433 46.4298 12.8994 44.6236 14.6134C43.2454 13.3086 41.5112 12.4339 39.6363 12.0981C37.7614 11.7622 35.8283 11.9798 34.077 12.7239C32.3257 13.468 30.8332 14.7059 29.7848 16.2839C28.7365 17.8619 28.1783 19.7105 28.1797 21.6004V38.8824H34.2478V21.5994C34.2637 20.6451 34.6571 19.7353 35.3431 19.066C36.0291 18.3968 36.9527 18.0217 37.9149 18.0217C38.8771 18.0217 39.8007 18.3968 40.4867 19.066C41.1727 19.7353 41.5661 20.6451 41.5821 21.5994V38.8814H47.6652V21.5994C47.6652 20.6345 48.0516 19.7092 48.7395 19.0269C49.4273 18.3447 50.3602 17.9614 51.3329 17.9614C52.3056 17.9614 53.2385 18.3447 53.9263 19.0269C54.6141 19.7092 55.0005 20.6345 55.0005 21.5994V38.8814H61.0686V21.5994C61.0657 19.0391 60.039 16.5845 58.2138 14.7741C56.3887 12.9637 53.9141 11.9453 51.3329 11.9424" fill="#50EB5D"/>
</g>
<defs>
<clipPath id="clip0_2978_2207">
<rect width="94" height="40" fill="white"/>
</clipPath>
</defs>
</svg>
