<svg width="40" height="40" viewBox="0 0 40 40" fill="none" xmlns="http://www.w3.org/2000/svg">
<rect width="40" height="40" fill="white"/>
<path d="M4.71875 1.83984H10.9588L16.6388 12.0798L21.5188 4.63984L26.1588 12.0798L32.3188 1.83984H35.2788L24.8788 19.9998L19.8388 12.0798L14.9588 20.0798" stroke="#1F1A17"/>
<path fill-rule="evenodd" clip-rule="evenodd" d="M14.9588 20.0798L19.8388 12.0798L24.8788 19.9998L35.2788 1.83984H32.3188L26.1588 12.0798L21.5188 4.63984L16.6388 12.0798L10.9588 1.83984H4.71875L14.9588 20.0798Z" stroke="#1F1A17"/>
<path fill-rule="evenodd" clip-rule="evenodd" d="M4.71875 1.83984H10.9588L16.6388 12.0798L21.5188 4.63984L26.1588 12.0798L32.3188 1.83984H35.2788L24.8788 19.9998L19.8388 12.0798L14.9588 20.0798L4.71875 1.83984Z" stroke="#1F1A17"/>
<path fill-rule="evenodd" clip-rule="evenodd" d="M4.71875 1.83984H10.9588L16.6388 12.0798L21.5188 4.63984L26.1588 12.0798L32.3188 1.83984H35.2788L24.8788 19.9998L19.8388 12.0798L14.9588 20.0798L4.71875 1.83984Z" fill="#1F1A17" stroke="#1F1A17"/>
<path fill-rule="evenodd" clip-rule="evenodd" d="M23.5998 38.1596H17.8398V24.4796L13.3598 32.6396L8.95984 24.4796V38.1596H5.83984V17.4396H10.9598L14.9598 24.4796L19.8398 16.5596L23.5998 22.5596V38.1596Z" fill="#1F1A17" stroke="#1F1A17"/>
<path fill-rule="evenodd" clip-rule="evenodd" d="M25.6797 22.5595L28.7197 17.4395H31.2797H34.7997V23.0395H31.2797V26.1595H34.4797V28.9595H31.2797V38.1595H25.6797V22.5595Z" fill="#1F1A17" stroke="#1F1A17"/>
</svg>
