<svg width="48" height="49" viewBox="0 0 48 49" fill="none" xmlns="http://www.w3.org/2000/svg">
<rect width="48" height="48" transform="translate(0 0.5)" fill="white"/>
<path d="M8.71875 6.33984H14.9588L20.6388 16.5798L25.5188 9.13984L30.1588 16.5798L36.3188 6.33984H39.2788L28.8788 24.4998L23.8388 16.5798L18.9588 24.5798" stroke="#1F1A17"/>
<path fill-rule="evenodd" clip-rule="evenodd" d="M18.9588 24.5798L23.8388 16.5798L28.8788 24.4998L39.2788 6.33984H36.3188L30.1588 16.5798L25.5188 9.13984L20.6388 16.5798L14.9588 6.33984H8.71875L18.9588 24.5798Z" stroke="#1F1A17"/>
<path fill-rule="evenodd" clip-rule="evenodd" d="M8.71875 6.33984H14.9588L20.6388 16.5798L25.5188 9.13984L30.1588 16.5798L36.3188 6.33984H39.2788L28.8788 24.4998L23.8388 16.5798L18.9588 24.5798L8.71875 6.33984Z" stroke="#1F1A17"/>
<path fill-rule="evenodd" clip-rule="evenodd" d="M8.71875 6.33984H14.9588L20.6388 16.5798L25.5188 9.13984L30.1588 16.5798L36.3188 6.33984H39.2788L28.8788 24.4998L23.8388 16.5798L18.9588 24.5798L8.71875 6.33984Z" fill="#232323" stroke="#252525"/>
<path fill-rule="evenodd" clip-rule="evenodd" d="M27.5998 42.6605H21.8398V28.9805L17.3598 37.1405L12.9598 28.9805V42.6605H9.83984V21.9405H14.9598L18.9598 28.9805L23.8398 21.0605L27.5998 27.0605V42.6605Z" fill="#232323" stroke="#252525"/>
<path fill-rule="evenodd" clip-rule="evenodd" d="M29.6797 27.0595L32.7197 21.9395H35.2797H38.7997V27.5395H35.2797V30.6595H38.4797V33.4595H35.2797V42.6595H29.6797V27.0595Z" fill="#272727" stroke="#282828"/>
</svg>
